<svg width="980" height="485" viewBox="0 0 980 485" fill="none" xmlns="http://www.w3.org/2000/svg">
<rect width="980" height="485" fill="#1E1E1E"/>
<rect width="980" height="485" fill="white"/>
<mask id="path-1-inside-1_0_1" fill="white">
<path fill-rule="evenodd" clip-rule="evenodd" d="M795.523 235.98L498.121 422.602L498.121 422.678L498.062 422.64L497.488 423L497.492 422.269L205 231.858L500.008 47.5337L500.018 46.0547L501.18 46.8015L502.463 46L502.444 47.6141L795.523 235.98ZM570.256 229.701C570.256 294.882 539.026 347.721 500.501 347.721C461.977 347.721 430.747 294.882 430.747 229.701C430.747 164.521 461.977 111.681 500.501 111.681C539.026 111.681 570.256 164.521 570.256 229.701ZM556.957 211.953C549.322 221.98 535.753 226.013 526.65 220.961C517.548 215.909 516.359 203.685 523.995 193.658C531.631 183.631 545.199 179.598 554.302 184.65C563.404 189.702 564.593 201.926 556.957 211.953ZM475.009 220.776C483.982 215.558 484.863 203.315 476.976 193.431C469.09 183.546 455.422 179.764 446.449 184.982C437.476 190.2 436.595 202.443 444.482 212.327C452.369 222.212 466.036 225.994 475.009 220.776ZM491.624 267.597L480.209 240.529L481.165 240.235L492.579 267.304L491.624 267.597ZM513.184 240.529L497.965 267.597L498.89 267.977L514.109 240.908L513.184 240.529ZM527.135 288.17H472.6V287.17H527.135V288.17ZM206.89 234.179L258.753 369.679L258.847 369.925L259.103 369.986L496.019 426.986L496.127 427.012L496.236 426.99L719.597 381.49L719.827 381.443L719.938 381.237L795.963 239.737L795.082 239.263L719.168 380.557L496.145 425.988L259.593 369.075L207.824 233.821L206.89 234.179ZM282.163 347.503C281.326 347.012 280.75 346.417 280.435 345.719C280.13 345.026 280.063 344.29 280.236 343.511C280.409 342.733 280.798 341.971 281.405 341.227L293.217 326.746L296.197 328.495L284.386 342.977C284.096 343.333 283.918 343.693 283.852 344.057C283.792 344.413 283.937 344.694 284.287 344.899C284.655 345.115 285.02 345.134 285.383 344.956C285.753 344.77 286.083 344.499 286.373 344.144L298.184 329.662L301.165 331.411L289.353 345.893C288.746 346.637 288.039 347.212 287.232 347.618C286.434 348.03 285.594 348.234 284.713 348.23C283.841 348.231 282.991 347.989 282.163 347.503ZM288.511 350.936L303.377 332.71L310.469 336.874L308.224 339.626L304.112 337.212L300.209 341.998L302.968 343.618L300.723 346.371L297.964 344.751L291.491 352.686L288.511 350.936ZM300.485 358.26C299.658 357.774 299.086 357.181 298.771 356.483C298.466 355.79 298.395 355.052 298.558 354.268C298.731 353.489 299.121 352.728 299.727 351.984L308.485 341.246C309.099 340.494 309.801 339.917 310.593 339.513C311.4 339.107 312.24 338.903 313.111 338.902C313.992 338.906 314.847 339.15 315.675 339.637C316.503 340.123 317.069 340.712 317.375 341.405C317.69 342.103 317.761 342.841 317.588 343.62C317.425 344.404 317.04 345.168 316.433 345.912L307.675 356.65C307.068 357.394 306.361 357.969 305.554 358.375C304.756 358.786 303.916 358.99 303.035 358.986C302.163 358.988 301.313 358.746 300.485 358.26ZM302.609 355.656C302.977 355.872 303.346 355.887 303.715 355.7C304.092 355.506 304.418 355.239 304.695 354.9L313.452 344.163C313.729 343.824 313.9 343.472 313.966 343.107C314.039 342.734 313.901 342.445 313.551 342.24C313.211 342.04 312.843 342.032 312.448 342.216C312.07 342.397 311.742 342.657 311.465 342.996L302.708 353.734C302.431 354.072 302.257 354.428 302.184 354.801C302.118 355.166 302.26 355.451 302.609 355.656ZM640.112 357.786L656.513 374.644L659.344 372.661L652.204 365.322L654.405 363.78L661.546 371.12L664.377 369.137L647.976 352.279L645.145 354.261L651.928 361.234L649.727 362.776L642.943 355.803L640.112 357.786ZM667.911 366.161C668.791 366.085 669.629 365.768 670.424 365.211C671.21 364.661 671.727 364.029 671.974 363.316C672.229 362.597 672.238 361.859 671.999 361.1C671.769 360.336 671.32 359.609 670.65 358.921L657.619 345.526L654.788 347.509L667.82 360.904C668.139 361.232 668.352 361.572 668.458 361.922C668.556 362.265 668.43 362.558 668.081 362.803C667.749 363.035 667.39 363.081 667.003 362.941C666.609 362.792 666.252 362.554 665.932 362.225L652.901 348.83L650.07 350.813L663.101 364.208C663.771 364.896 664.522 365.411 665.354 365.753C666.187 366.096 667.039 366.232 667.911 366.161ZM659.72 344.055L676.121 360.913L678.716 359.096L669.411 349.531L669.568 349.421L670.563 350.036L681.993 356.801L684.378 355.131L667.977 338.273L665.382 340.09L674.687 349.655L674.53 349.765L673.535 349.15L662.368 342.201L659.72 344.055ZM674.426 338.037L688.35 352.35L691.181 350.367L677.257 336.055L679.93 334.183L677.454 331.637L669.275 337.364L671.752 339.91L674.426 338.037ZM678.765 330.719L695.166 347.577L701.64 343.043L699.163 340.497L695.52 343.048L690.901 338.301L693.522 336.465L691.112 333.988L688.491 335.823L684.073 331.282L687.716 328.731L685.239 326.185L678.765 330.719ZM687.34 324.714L703.741 341.572L706.572 339.589L699.655 332.479L700.153 332.13L708.669 338.121L711.5 336.139L701.775 329.471C702.004 328.771 701.972 327.945 701.678 326.994C701.386 326.029 700.778 325.073 699.856 324.125C698.301 322.527 696.724 321.6 695.124 321.345C693.517 321.082 691.866 321.544 690.171 322.731L687.34 324.714ZM698.378 329.015C698.266 329.428 697.948 329.818 697.423 330.186L692.559 325.185C693.354 324.629 694.112 324.464 694.833 324.692C695.555 324.906 696.307 325.414 697.088 326.217C697.586 326.729 697.952 327.219 698.186 327.685C698.419 328.151 698.483 328.595 698.378 329.015ZM714.433 333.834C715.164 333.695 715.918 333.353 716.696 332.808C717.395 332.319 717.885 331.796 718.166 331.239C718.456 330.676 718.572 330.094 718.515 329.491C718.466 328.882 718.267 328.27 717.917 327.654C717.56 327.03 717.087 326.416 716.5 325.812C715.57 324.856 714.469 324.162 713.196 323.729C711.932 323.291 710.445 322.88 708.735 322.496C707.297 322.166 706.092 321.84 705.118 321.519C704.145 321.198 703.346 320.717 702.721 320.074C702.237 319.578 701.935 319.146 701.815 318.781C701.687 318.408 701.806 318.093 702.173 317.836C702.409 317.67 702.672 317.608 702.962 317.65C703.252 317.691 703.551 317.803 703.861 317.984C704.17 318.166 704.479 318.393 704.788 318.666C705.098 318.924 705.391 319.195 705.666 319.478L708.221 317.303C707.574 316.637 706.912 316.085 706.236 315.647C705.56 315.194 704.872 314.879 704.171 314.702C703.478 314.518 702.774 314.497 702.059 314.638C701.353 314.773 700.637 315.094 699.912 315.602C699.326 316.012 698.903 316.475 698.642 316.992C698.381 317.509 698.264 318.06 698.29 318.646C698.318 319.218 698.483 319.803 698.786 320.401C699.081 320.991 699.504 321.569 700.054 322.135C700.753 322.853 701.562 323.444 702.482 323.905C703.41 324.361 704.458 324.752 705.627 325.077C706.804 325.397 708.121 325.715 709.576 326.033C710.431 326.218 711.256 326.47 712.05 326.788C712.845 327.105 713.476 327.505 713.944 327.987C714.413 328.469 714.727 328.943 714.887 329.409C715.04 329.868 714.906 330.244 714.487 330.538C714.234 330.715 713.946 330.782 713.624 330.737C713.31 330.687 712.98 330.559 712.632 330.352C712.285 330.132 711.931 329.866 711.569 329.554C711.208 329.228 710.849 328.882 710.492 328.515L707.937 330.69C708.673 331.447 709.396 332.085 710.106 332.603C710.825 333.115 711.541 333.481 712.254 333.701C712.968 333.922 713.694 333.966 714.433 333.834Z"/>
</mask>
<path fill-rule="evenodd" clip-rule="evenodd" d="M795.523 235.98L498.121 422.602L498.121 422.678L498.062 422.64L497.488 423L497.492 422.269L205 231.858L500.008 47.5337L500.018 46.0547L501.18 46.8015L502.463 46L502.444 47.6141L795.523 235.98ZM570.256 229.701C570.256 294.882 539.026 347.721 500.501 347.721C461.977 347.721 430.747 294.882 430.747 229.701C430.747 164.521 461.977 111.681 500.501 111.681C539.026 111.681 570.256 164.521 570.256 229.701ZM556.957 211.953C549.322 221.98 535.753 226.013 526.65 220.961C517.548 215.909 516.359 203.685 523.995 193.658C531.631 183.631 545.199 179.598 554.302 184.65C563.404 189.702 564.593 201.926 556.957 211.953ZM475.009 220.776C483.982 215.558 484.863 203.315 476.976 193.431C469.09 183.546 455.422 179.764 446.449 184.982C437.476 190.2 436.595 202.443 444.482 212.327C452.369 222.212 466.036 225.994 475.009 220.776ZM491.624 267.597L480.209 240.529L481.165 240.235L492.579 267.304L491.624 267.597ZM513.184 240.529L497.965 267.597L498.89 267.977L514.109 240.908L513.184 240.529ZM527.135 288.17H472.6V287.17H527.135V288.17ZM206.89 234.179L258.753 369.679L258.847 369.925L259.103 369.986L496.019 426.986L496.127 427.012L496.236 426.99L719.597 381.49L719.827 381.443L719.938 381.237L795.963 239.737L795.082 239.263L719.168 380.557L496.145 425.988L259.593 369.075L207.824 233.821L206.89 234.179ZM282.163 347.503C281.326 347.012 280.75 346.417 280.435 345.719C280.13 345.026 280.063 344.29 280.236 343.511C280.409 342.733 280.798 341.971 281.405 341.227L293.217 326.746L296.197 328.495L284.386 342.977C284.096 343.333 283.918 343.693 283.852 344.057C283.792 344.413 283.937 344.694 284.287 344.899C284.655 345.115 285.02 345.134 285.383 344.956C285.753 344.77 286.083 344.499 286.373 344.144L298.184 329.662L301.165 331.411L289.353 345.893C288.746 346.637 288.039 347.212 287.232 347.618C286.434 348.03 285.594 348.234 284.713 348.23C283.841 348.231 282.991 347.989 282.163 347.503ZM288.511 350.936L303.377 332.71L310.469 336.874L308.224 339.626L304.112 337.212L300.209 341.998L302.968 343.618L300.723 346.371L297.964 344.751L291.491 352.686L288.511 350.936ZM300.485 358.26C299.658 357.774 299.086 357.181 298.771 356.483C298.466 355.79 298.395 355.052 298.558 354.268C298.731 353.489 299.121 352.728 299.727 351.984L308.485 341.246C309.099 340.494 309.801 339.917 310.593 339.513C311.4 339.107 312.24 338.903 313.111 338.902C313.992 338.906 314.847 339.15 315.675 339.637C316.503 340.123 317.069 340.712 317.375 341.405C317.69 342.103 317.761 342.841 317.588 343.62C317.425 344.404 317.04 345.168 316.433 345.912L307.675 356.65C307.068 357.394 306.361 357.969 305.554 358.375C304.756 358.786 303.916 358.99 303.035 358.986C302.163 358.988 301.313 358.746 300.485 358.26ZM302.609 355.656C302.977 355.872 303.346 355.887 303.715 355.7C304.092 355.506 304.418 355.239 304.695 354.9L313.452 344.163C313.729 343.824 313.9 343.472 313.966 343.107C314.039 342.734 313.901 342.445 313.551 342.24C313.211 342.04 312.843 342.032 312.448 342.216C312.07 342.397 311.742 342.657 311.465 342.996L302.708 353.734C302.431 354.072 302.257 354.428 302.184 354.801C302.118 355.166 302.26 355.451 302.609 355.656ZM640.112 357.786L656.513 374.644L659.344 372.661L652.204 365.322L654.405 363.78L661.546 371.12L664.377 369.137L647.976 352.279L645.145 354.261L651.928 361.234L649.727 362.776L642.943 355.803L640.112 357.786ZM667.911 366.161C668.791 366.085 669.629 365.768 670.424 365.211C671.21 364.661 671.727 364.029 671.974 363.316C672.229 362.597 672.238 361.859 671.999 361.1C671.769 360.336 671.32 359.609 670.65 358.921L657.619 345.526L654.788 347.509L667.82 360.904C668.139 361.232 668.352 361.572 668.458 361.922C668.556 362.265 668.43 362.558 668.081 362.803C667.749 363.035 667.39 363.081 667.003 362.941C666.609 362.792 666.252 362.554 665.932 362.225L652.901 348.83L650.07 350.813L663.101 364.208C663.771 364.896 664.522 365.411 665.354 365.753C666.187 366.096 667.039 366.232 667.911 366.161ZM659.72 344.055L676.121 360.913L678.716 359.096L669.411 349.531L669.568 349.421L670.563 350.036L681.993 356.801L684.378 355.131L667.977 338.273L665.382 340.09L674.687 349.655L674.53 349.765L673.535 349.15L662.368 342.201L659.72 344.055ZM674.426 338.037L688.35 352.35L691.181 350.367L677.257 336.055L679.93 334.183L677.454 331.637L669.275 337.364L671.752 339.91L674.426 338.037ZM678.765 330.719L695.166 347.577L701.64 343.043L699.163 340.497L695.52 343.048L690.901 338.301L693.522 336.465L691.112 333.988L688.491 335.823L684.073 331.282L687.716 328.731L685.239 326.185L678.765 330.719ZM687.34 324.714L703.741 341.572L706.572 339.589L699.655 332.479L700.153 332.13L708.669 338.121L711.5 336.139L701.775 329.471C702.004 328.771 701.972 327.945 701.678 326.994C701.386 326.029 700.778 325.073 699.856 324.125C698.301 322.527 696.724 321.6 695.124 321.345C693.517 321.082 691.866 321.544 690.171 322.731L687.34 324.714ZM698.378 329.015C698.266 329.428 697.948 329.818 697.423 330.186L692.559 325.185C693.354 324.629 694.112 324.464 694.833 324.692C695.555 324.906 696.307 325.414 697.088 326.217C697.586 326.729 697.952 327.219 698.186 327.685C698.419 328.151 698.483 328.595 698.378 329.015ZM714.433 333.834C715.164 333.695 715.918 333.353 716.696 332.808C717.395 332.319 717.885 331.796 718.166 331.239C718.456 330.676 718.572 330.094 718.515 329.491C718.466 328.882 718.267 328.27 717.917 327.654C717.56 327.03 717.087 326.416 716.5 325.812C715.57 324.856 714.469 324.162 713.196 323.729C711.932 323.291 710.445 322.88 708.735 322.496C707.297 322.166 706.092 321.84 705.118 321.519C704.145 321.198 703.346 320.717 702.721 320.074C702.237 319.578 701.935 319.146 701.815 318.781C701.687 318.408 701.806 318.093 702.173 317.836C702.409 317.67 702.672 317.608 702.962 317.65C703.252 317.691 703.551 317.803 703.861 317.984C704.17 318.166 704.479 318.393 704.788 318.666C705.098 318.924 705.391 319.195 705.666 319.478L708.221 317.303C707.574 316.637 706.912 316.085 706.236 315.647C705.56 315.194 704.872 314.879 704.171 314.702C703.478 314.518 702.774 314.497 702.059 314.638C701.353 314.773 700.637 315.094 699.912 315.602C699.326 316.012 698.903 316.475 698.642 316.992C698.381 317.509 698.264 318.06 698.29 318.646C698.318 319.218 698.483 319.803 698.786 320.401C699.081 320.991 699.504 321.569 700.054 322.135C700.753 322.853 701.562 323.444 702.482 323.905C703.41 324.361 704.458 324.752 705.627 325.077C706.804 325.397 708.121 325.715 709.576 326.033C710.431 326.218 711.256 326.47 712.05 326.788C712.845 327.105 713.476 327.505 713.944 327.987C714.413 328.469 714.727 328.943 714.887 329.409C715.04 329.868 714.906 330.244 714.487 330.538C714.234 330.715 713.946 330.782 713.624 330.737C713.31 330.687 712.98 330.559 712.632 330.352C712.285 330.132 711.931 329.866 711.569 329.554C711.208 329.228 710.849 328.882 710.492 328.515L707.937 330.69C708.673 331.447 709.396 332.085 710.106 332.603C710.825 333.115 711.541 333.481 712.254 333.701C712.968 333.922 713.694 333.966 714.433 333.834Z" fill="url(#paint0_linear_0_1)" fill-opacity="0.76"/>
<path d="M498.121 422.602L497.59 421.755L497.128 422.045L497.121 422.591L498.121 422.602ZM795.523 235.98L796.055 236.827L797.388 235.99L796.064 235.138L795.523 235.98ZM498.121 422.678L497.575 423.516L499.1 424.508L499.12 422.689L498.121 422.678ZM498.062 422.64L498.607 421.801L498.072 421.453L497.531 421.793L498.062 422.64ZM497.488 423L496.488 422.993L496.475 424.816L498.019 423.847L497.488 423ZM497.492 422.269L498.492 422.276L498.496 421.729L498.038 421.431L497.492 422.269ZM205 231.858L204.47 231.01L203.14 231.84L204.454 232.696L205 231.858ZM500.008 47.5337L500.538 48.3818L501.005 48.0904L501.008 47.5405L500.008 47.5337ZM500.018 46.0547L500.559 45.2135L499.03 44.2311L499.018 46.048L500.018 46.0547ZM501.18 46.8015L500.639 47.6428L501.173 47.9854L501.71 47.6496L501.18 46.8015ZM502.463 46L503.463 46.0115L503.484 44.1829L501.933 45.1519L502.463 46ZM502.444 47.6141L501.444 47.6025L501.438 48.156L501.904 48.4553L502.444 47.6141ZM526.65 220.961L527.136 220.086L526.65 220.961ZM556.957 211.953L556.162 211.347L556.957 211.953ZM523.995 193.658L524.79 194.263L523.995 193.658ZM554.302 184.65L554.787 183.775L554.302 184.65ZM476.976 193.431L476.194 194.055L476.976 193.431ZM475.009 220.776L474.506 219.912L475.009 220.776ZM446.449 184.982L445.946 184.117L446.449 184.982ZM444.482 212.327L445.264 211.703L444.482 212.327ZM480.209 240.529L479.915 239.573L478.858 239.898L479.288 240.917L480.209 240.529ZM491.624 267.597L490.702 267.986L491.053 268.819L491.917 268.553L491.624 267.597ZM481.165 240.235L482.086 239.846L481.735 239.013L480.871 239.279L481.165 240.235ZM492.579 267.304L492.873 268.26L493.931 267.935L493.501 266.915L492.579 267.304ZM497.965 267.597L497.093 267.107L496.539 268.094L497.586 268.523L497.965 267.597ZM513.184 240.529L513.563 239.603L512.746 239.268L512.312 240.039L513.184 240.529ZM498.89 267.977L498.511 268.902L499.329 269.237L499.762 268.467L498.89 267.977ZM514.109 240.908L514.981 241.398L515.536 240.412L514.489 239.983L514.109 240.908ZM472.6 288.17H471.6V289.17H472.6V288.17ZM527.135 288.17V289.17H528.135V288.17H527.135ZM472.6 287.17V286.17H471.6V287.17H472.6ZM527.135 287.17H528.135V286.17H527.135V287.17ZM258.753 369.679L259.687 369.321L259.687 369.321L258.753 369.679ZM206.89 234.179L206.533 233.245L205.599 233.602L205.956 234.536L206.89 234.179ZM258.847 369.925L257.913 370.282L258.101 370.774L258.613 370.897L258.847 369.925ZM259.103 369.986L258.869 370.958H258.869L259.103 369.986ZM496.019 426.986L495.785 427.958L495.785 427.958L496.019 426.986ZM496.127 427.012L495.893 427.984L496.109 428.036L496.327 427.992L496.127 427.012ZM496.236 426.99L496.435 427.97H496.435L496.236 426.99ZM719.597 381.49L719.398 380.51L719.597 381.49ZM719.827 381.443L720.027 382.423L720.486 382.329L720.708 381.916L719.827 381.443ZM719.938 381.237L720.819 381.71V381.71L719.938 381.237ZM795.963 239.737L796.844 240.21L797.318 239.329L796.437 238.856L795.963 239.737ZM795.082 239.263L795.556 238.382L794.675 237.909L794.202 238.79L795.082 239.263ZM719.168 380.557L719.368 381.537L719.827 381.443L720.049 381.03L719.168 380.557ZM496.145 425.988L495.911 426.96L496.127 427.012L496.345 426.968L496.145 425.988ZM259.593 369.075L258.659 369.433L258.847 369.925L259.359 370.048L259.593 369.075ZM207.824 233.821L208.758 233.464L208.401 232.53L207.467 232.887L207.824 233.821ZM280.435 345.719L279.52 346.122L279.524 346.13L280.435 345.719ZM282.163 347.503L282.669 346.641H282.669L282.163 347.503ZM281.405 341.227L282.18 341.859L281.405 341.227ZM293.217 326.746L293.723 325.883L292.984 325.449L292.442 326.113L293.217 326.746ZM296.197 328.495L296.972 329.127L297.71 328.223L296.704 327.633L296.197 328.495ZM284.386 342.977L285.161 343.609L285.161 343.609L284.386 342.977ZM283.852 344.057L282.868 343.879L282.866 343.886L282.865 343.893L283.852 344.057ZM284.287 344.899L283.781 345.762L283.781 345.762L284.287 344.899ZM285.383 344.956L285.824 345.854L285.833 345.849L285.383 344.956ZM286.373 344.144L285.598 343.512H285.598L286.373 344.144ZM298.184 329.662L298.691 328.799L297.951 328.365L297.409 329.03L298.184 329.662ZM301.165 331.411L301.94 332.043L302.677 331.14L301.671 330.549L301.165 331.411ZM289.353 345.893L290.128 346.525L289.353 345.893ZM287.232 347.618L286.782 346.725L286.773 346.73L287.232 347.618ZM284.713 348.23L284.717 347.23H284.711L284.713 348.23ZM303.377 332.71L303.883 331.848L303.144 331.414L302.602 332.078L303.377 332.71ZM288.511 350.936L287.736 350.304L286.999 351.208L288.005 351.799L288.511 350.936ZM310.469 336.874L311.244 337.506L311.981 336.602L310.975 336.011L310.469 336.874ZM308.224 339.626L307.718 340.489L308.457 340.923L308.999 340.258L308.224 339.626ZM304.112 337.212L304.618 336.35L303.879 335.916L303.337 336.58L304.112 337.212ZM300.209 341.998L299.434 341.366L298.696 342.27L299.702 342.861L300.209 341.998ZM302.968 343.618L303.743 344.25L304.48 343.347L303.474 342.756L302.968 343.618ZM300.723 346.371L300.217 347.233L300.956 347.667L301.498 347.003L300.723 346.371ZM297.964 344.751L298.47 343.888L297.731 343.454L297.189 344.119L297.964 344.751ZM291.491 352.686L290.985 353.548L291.724 353.983L292.266 353.318L291.491 352.686ZM298.771 356.483L297.856 356.887L297.86 356.894L298.771 356.483ZM300.485 358.26L300.992 357.397H300.992L300.485 358.26ZM298.558 354.268L297.582 354.051L297.579 354.064L298.558 354.268ZM299.727 351.984L300.502 352.616L299.727 351.984ZM308.485 341.246L309.26 341.878H309.26L308.485 341.246ZM310.593 339.513L310.143 338.62L310.139 338.622L310.593 339.513ZM313.111 338.902L313.116 337.902H313.11L313.111 338.902ZM317.375 341.405L316.46 341.808L316.463 341.816L317.375 341.405ZM317.588 343.62L316.612 343.404L316.609 343.416L317.588 343.62ZM316.433 345.912L315.658 345.28L316.433 345.912ZM307.675 356.65L306.9 356.018H306.9L307.675 356.65ZM305.554 358.375L305.104 357.481L305.096 357.486L305.554 358.375ZM303.035 358.986L303.039 357.986H303.033L303.035 358.986ZM303.715 355.7L304.166 356.593L304.175 356.589L303.715 355.7ZM302.609 355.656L303.115 354.793L303.115 354.793L302.609 355.656ZM304.695 354.9L305.47 355.532L304.695 354.9ZM313.452 344.163L312.677 343.531L313.452 344.163ZM313.966 343.107L312.985 342.916L312.982 342.929L313.966 343.107ZM313.551 342.24L314.057 341.378L314.057 341.378L313.551 342.24ZM312.448 342.216L312.026 341.31L312.017 341.314L312.448 342.216ZM311.465 342.996L310.691 342.364H310.691L311.465 342.996ZM302.708 353.734L303.483 354.366H303.483L302.708 353.734ZM302.184 354.801L301.202 354.609L301.2 354.623L302.184 354.801ZM656.513 374.644L655.796 375.341L656.39 375.951L657.087 375.463L656.513 374.644ZM640.112 357.786L639.539 356.967L638.576 357.641L639.395 358.483L640.112 357.786ZM659.344 372.661L659.918 373.481L660.88 372.806L660.061 371.964L659.344 372.661ZM652.204 365.322L651.63 364.503L650.667 365.177L651.487 366.019L652.204 365.322ZM654.405 363.78L655.122 363.083L654.529 362.473L653.832 362.961L654.405 363.78ZM661.546 371.12L660.829 371.817L661.423 372.427L662.12 371.939L661.546 371.12ZM664.377 369.137L664.95 369.956L665.913 369.282L665.094 368.44L664.377 369.137ZM647.976 352.279L648.693 351.582L648.099 350.972L647.402 351.46L647.976 352.279ZM645.145 354.261L644.571 353.442L643.609 354.116L644.428 354.959L645.145 354.261ZM651.928 361.234L652.502 362.053L653.465 361.379L652.645 360.537L651.928 361.234ZM649.727 362.776L649.01 363.473L649.603 364.083L650.3 363.595L649.727 362.776ZM642.943 355.803L643.66 355.106L643.067 354.496L642.37 354.984L642.943 355.803ZM670.424 365.211L669.85 364.392H669.85L670.424 365.211ZM667.911 366.161L667.991 367.158L667.997 367.158L667.911 366.161ZM671.974 363.316L671.031 362.981L671.029 362.989L671.974 363.316ZM671.999 361.1L671.041 361.388L671.045 361.4L671.999 361.1ZM670.65 358.921L669.934 359.618L670.65 358.921ZM657.619 345.526L658.336 344.829L657.742 344.219L657.045 344.707L657.619 345.526ZM654.788 347.509L654.214 346.69L653.252 347.364L654.071 348.206L654.788 347.509ZM667.82 360.904L667.103 361.601L667.82 360.904ZM668.458 361.922L669.419 361.646L669.415 361.633L668.458 361.922ZM668.081 362.803L668.654 363.622H668.654L668.081 362.803ZM667.003 362.941L666.651 363.877L666.661 363.88L667.003 362.941ZM665.932 362.225L665.215 362.922L665.215 362.923L665.932 362.225ZM652.901 348.83L653.617 348.133L653.024 347.523L652.327 348.011L652.901 348.83ZM650.07 350.813L649.496 349.994L648.534 350.668L649.353 351.51L650.07 350.813ZM663.101 364.208L662.385 364.905L663.101 364.208ZM676.121 360.913L675.404 361.61L675.998 362.22L676.695 361.732L676.121 360.913ZM659.72 344.055L659.147 343.236L658.184 343.91L659.003 344.752L659.72 344.055ZM678.716 359.096L679.29 359.915L680.252 359.241L679.433 358.399L678.716 359.096ZM669.411 349.531L668.838 348.712L667.875 349.386L668.694 350.229L669.411 349.531ZM669.568 349.421L670.094 348.571L669.534 348.225L668.995 348.602L669.568 349.421ZM670.563 350.036L670.037 350.887L670.045 350.892L670.054 350.897L670.563 350.036ZM681.993 356.801L681.483 357.662L682.038 357.99L682.566 357.621L681.993 356.801ZM684.378 355.131L684.952 355.95L685.914 355.276L685.095 354.434L684.378 355.131ZM667.977 338.273L668.694 337.576L668.1 336.966L667.403 337.454L667.977 338.273ZM665.382 340.09L664.808 339.271L663.846 339.945L664.665 340.787L665.382 340.09ZM674.687 349.655L675.261 350.474L676.223 349.8L675.404 348.957L674.687 349.655ZM674.53 349.765L674.004 350.615L674.564 350.962L675.103 350.584L674.53 349.765ZM673.535 349.15L673.007 349.999L673.009 350.001L673.535 349.15ZM662.368 342.201L662.896 341.352L662.335 341.003L661.794 341.382L662.368 342.201ZM688.35 352.35L687.633 353.047L688.227 353.657L688.924 353.169L688.35 352.35ZM674.426 338.037L675.143 337.34L674.549 336.73L673.852 337.218L674.426 338.037ZM691.181 350.367L691.754 351.186L692.717 350.512L691.898 349.67L691.181 350.367ZM677.257 336.055L676.683 335.236L675.721 335.91L676.54 336.752L677.257 336.055ZM679.93 334.183L680.504 335.002L681.467 334.328L680.647 333.486L679.93 334.183ZM677.454 331.637L678.17 330.94L677.577 330.33L676.88 330.818L677.454 331.637ZM669.275 337.364L668.702 336.545L667.739 337.219L668.559 338.061L669.275 337.364ZM671.752 339.91L671.035 340.607L671.629 341.217L672.326 340.729L671.752 339.91ZM695.166 347.577L694.449 348.274L695.043 348.884L695.74 348.396L695.166 347.577ZM678.765 330.719L678.191 329.899L677.229 330.574L678.048 331.416L678.765 330.719ZM701.64 343.043L702.214 343.862L703.177 343.188L702.357 342.346L701.64 343.043ZM699.163 340.497L699.88 339.8L699.287 339.19L698.59 339.678L699.163 340.497ZM695.52 343.048L694.803 343.746L695.397 344.356L696.094 343.868L695.52 343.048ZM690.901 338.301L690.327 337.482L689.365 338.156L690.184 338.998L690.901 338.301ZM693.522 336.465L694.096 337.284L695.058 336.61L694.239 335.768L693.522 336.465ZM691.112 333.988L691.829 333.291L691.236 332.681L690.539 333.169L691.112 333.988ZM688.491 335.823L687.774 336.521L688.368 337.131L689.065 336.643L688.491 335.823ZM684.073 331.282L683.499 330.463L682.536 331.137L683.356 331.979L684.073 331.282ZM687.716 328.731L688.29 329.55L689.253 328.876L688.433 328.033L687.716 328.731ZM685.239 326.185L685.956 325.487L685.363 324.878L684.666 325.366L685.239 326.185ZM703.741 341.572L703.024 342.269L703.618 342.879L704.315 342.391L703.741 341.572ZM687.34 324.714L686.767 323.895L685.804 324.569L686.623 325.411L687.34 324.714ZM706.572 339.589L707.146 340.409L708.108 339.734L707.289 338.892L706.572 339.589ZM699.655 332.479L699.081 331.66L698.118 332.334L698.938 333.176L699.655 332.479ZM700.153 332.13L700.728 331.312L700.154 330.909L699.579 331.311L700.153 332.13ZM708.669 338.121L708.094 338.939L708.668 339.343L709.243 338.94L708.669 338.121ZM711.5 336.139L712.074 336.958L713.256 336.13L712.065 335.314L711.5 336.139ZM701.775 329.471L700.824 329.16L700.591 329.873L701.209 330.296L701.775 329.471ZM701.678 326.994L700.721 327.284L700.723 327.289L701.678 326.994ZM699.856 324.125L699.139 324.822L699.856 324.125ZM695.124 321.345L694.963 322.332L694.967 322.332L695.124 321.345ZM690.171 322.731L689.598 321.912L690.171 322.731ZM697.423 330.186L696.707 330.883L697.3 331.493L697.997 331.005L697.423 330.186ZM698.378 329.015L699.343 329.278L699.346 329.268L699.348 329.258L698.378 329.015ZM692.559 325.185L691.985 324.366L691.023 325.04L691.842 325.883L692.559 325.185ZM694.833 324.692L694.532 325.645L694.54 325.648L694.549 325.651L694.833 324.692ZM697.088 326.217L697.805 325.52L697.088 326.217ZM698.186 327.685L697.291 328.133V328.133L698.186 327.685ZM716.696 332.808L716.123 331.989V331.989L716.696 332.808ZM714.433 333.834L714.608 334.819L714.62 334.816L714.433 333.834ZM718.166 331.239L717.277 330.781L717.273 330.789L718.166 331.239ZM718.515 329.491L717.518 329.571L717.519 329.578L717.519 329.586L718.515 329.491ZM717.917 327.654L718.787 327.16L718.785 327.157L717.917 327.654ZM716.5 325.812L717.217 325.115L717.217 325.115L716.5 325.812ZM713.196 323.729L712.868 324.674L712.874 324.676L713.196 323.729ZM708.735 322.496L708.511 323.471L708.516 323.472L708.735 322.496ZM705.118 321.519L705.431 320.57L705.118 321.519ZM702.721 320.074L702.004 320.772H702.004L702.721 320.074ZM701.815 318.781L702.765 318.468L702.761 318.456L701.815 318.781ZM702.173 317.836L701.6 317.017L702.173 317.836ZM702.962 317.65L702.821 318.64H702.821L702.962 317.65ZM703.861 317.984L703.354 318.846L703.354 318.846L703.861 317.984ZM704.788 318.666L704.127 319.416L704.137 319.425L704.148 319.434L704.788 318.666ZM705.666 319.478L704.949 320.175L705.602 320.846L706.314 320.239L705.666 319.478ZM708.221 317.303L708.869 318.064L709.683 317.371L708.938 316.605L708.221 317.303ZM706.236 315.647L705.679 316.477L705.685 316.482L705.691 316.486L706.236 315.647ZM704.171 314.702L703.915 315.669L703.925 315.671L704.171 314.702ZM702.059 314.638L702.246 315.62L702.252 315.619L702.059 314.638ZM699.912 315.602L700.486 316.421L699.912 315.602ZM698.29 318.646L697.291 318.691L697.292 318.694L698.29 318.646ZM698.786 320.401L699.68 319.953L699.678 319.949L698.786 320.401ZM700.054 322.135L699.337 322.832H699.337L700.054 322.135ZM702.482 323.905L702.033 324.799L702.041 324.803L702.482 323.905ZM705.627 325.077L705.359 326.04L705.365 326.042L705.627 325.077ZM709.576 326.033L709.362 327.01L709.364 327.011L709.576 326.033ZM712.05 326.788L711.679 327.716H711.679L712.05 326.788ZM714.887 329.409L715.836 329.094L715.833 329.085L714.887 329.409ZM714.487 330.538L713.913 329.719L713.913 329.719L714.487 330.538ZM713.624 330.737L713.465 331.725L713.476 331.727L713.487 331.728L713.624 330.737ZM712.632 330.352L712.095 331.196L712.108 331.204L712.121 331.212L712.632 330.352ZM711.569 329.554L710.899 330.297L710.908 330.304L710.916 330.312L711.569 329.554ZM710.492 328.515L711.209 327.818L710.556 327.147L709.844 327.754L710.492 328.515ZM707.937 330.69L707.288 329.929L706.475 330.621L707.22 331.387L707.937 330.69ZM710.106 332.603L709.516 333.411L709.526 333.417L710.106 332.603ZM498.653 423.449L796.055 236.827L794.992 235.133L497.59 421.755L498.653 423.449ZM499.12 422.689L499.121 422.614L497.121 422.591L497.121 422.666L499.12 422.689ZM497.517 423.478L497.575 423.516L498.666 421.839L498.607 421.801L497.517 423.478ZM498.019 423.847L498.594 423.487L497.531 421.793L496.956 422.153L498.019 423.847ZM496.492 422.262L496.488 422.993L498.487 423.007L498.492 422.276L496.492 422.262ZM204.454 232.696L496.947 423.107L498.038 421.431L205.546 231.02L204.454 232.696ZM499.478 46.6857L204.47 231.01L205.53 232.706L500.538 48.3818L499.478 46.6857ZM499.018 46.048L499.008 47.527L501.008 47.5405L501.018 46.0614L499.018 46.048ZM501.721 45.9603L500.559 45.2135L499.478 46.8959L500.639 47.6428L501.721 45.9603ZM501.933 45.1519L500.65 45.9535L501.71 47.6496L502.993 46.8481L501.933 45.1519ZM503.444 47.6256L503.463 46.0115L501.463 45.9885L501.444 47.6025L503.444 47.6256ZM796.064 235.138L502.985 46.7728L501.904 48.4553L794.982 236.821L796.064 235.138ZM500.501 348.721C520.26 348.721 537.971 335.177 550.686 313.663C563.415 292.126 571.256 262.439 571.256 229.701H569.256C569.256 262.144 561.482 291.467 548.965 312.645C536.434 333.846 519.267 346.721 500.501 346.721V348.721ZM429.747 229.701C429.747 262.439 437.587 292.126 450.316 313.663C463.032 335.177 480.742 348.721 500.501 348.721V346.721C481.736 346.721 464.569 333.846 452.038 312.645C439.521 291.467 431.747 262.144 431.747 229.701H429.747ZM500.501 110.681C480.742 110.681 463.032 124.225 450.316 145.74C437.587 167.276 429.747 196.963 429.747 229.701H431.747C431.747 197.258 439.521 167.936 452.038 146.757C464.569 125.557 481.736 112.681 500.501 112.681V110.681ZM571.256 229.701C571.256 196.963 563.415 167.276 550.686 145.74C537.971 124.225 520.26 110.681 500.501 110.681V112.681C519.267 112.681 536.434 125.557 548.965 146.757C561.482 167.936 569.256 197.258 569.256 229.701H571.256ZM526.165 221.835C535.822 227.195 549.908 222.86 557.753 212.559L556.162 211.347C548.735 221.1 535.683 224.83 527.136 220.086L526.165 221.835ZM523.199 193.052C519.251 198.237 517.542 204.045 518.05 209.272C518.56 214.514 521.304 219.137 526.165 221.835L527.136 220.086C522.894 217.732 520.492 213.717 520.041 209.078C519.588 204.422 521.103 199.105 524.79 194.263L523.199 193.052ZM554.787 183.775C545.13 178.415 531.044 182.75 523.199 193.052L524.79 194.263C532.217 184.511 545.269 180.78 553.817 185.524L554.787 183.775ZM557.753 212.559C561.701 207.374 563.41 201.565 562.902 196.339C562.392 191.097 559.648 186.473 554.787 183.775L553.817 185.524C558.058 187.878 560.46 191.893 560.911 196.533C561.364 201.188 559.849 206.505 556.162 211.347L557.753 212.559ZM476.194 194.055C480.004 198.83 481.653 204.119 481.317 208.782C480.983 213.428 478.684 217.482 474.506 219.912L475.512 221.641C480.307 218.852 482.935 214.177 483.312 208.925C483.689 203.691 481.834 197.916 477.758 192.807L476.194 194.055ZM446.952 185.846C455.374 180.948 468.52 184.435 476.194 194.055L477.758 192.807C469.659 182.657 455.471 178.579 445.946 184.117L446.952 185.846ZM445.264 211.703C441.454 206.928 439.805 201.639 440.141 196.976C440.475 192.33 442.774 188.276 446.952 185.846L445.946 184.117C441.151 186.906 438.524 191.581 438.146 196.833C437.769 202.067 439.624 207.841 443.7 212.951L445.264 211.703ZM474.506 219.912C466.084 224.809 452.939 221.322 445.264 211.703L443.7 212.951C451.799 223.101 465.988 227.179 475.512 221.641L474.506 219.912ZM479.288 240.917L490.702 267.986L492.545 267.209L481.131 240.14L479.288 240.917ZM480.871 239.279L479.915 239.573L480.503 241.485L481.459 241.191L480.871 239.279ZM493.501 266.915L482.086 239.846L480.244 240.623L491.658 267.692L493.501 266.915ZM491.917 268.553L492.873 268.26L492.286 266.348L491.33 266.642L491.917 268.553ZM498.837 268.088L514.056 241.019L512.312 240.039L497.093 267.107L498.837 268.088ZM499.269 267.051L498.344 266.672L497.586 268.523L498.511 268.902L499.269 267.051ZM513.238 240.418L498.019 267.487L499.762 268.467L514.981 241.398L513.238 240.418ZM512.805 241.454L513.73 241.833L514.489 239.983L513.563 239.603L512.805 241.454ZM472.6 289.17H527.135V287.17H472.6V289.17ZM471.6 287.17V288.17H473.6V287.17H471.6ZM527.135 286.17H472.6V288.17H527.135V286.17ZM528.135 288.17V287.17H526.135V288.17H528.135ZM259.687 369.321L207.824 233.821L205.956 234.536L257.819 370.036L259.687 369.321ZM259.781 369.567L259.687 369.321L257.819 370.036L257.913 370.282L259.781 369.567ZM259.337 369.014L259.081 368.952L258.613 370.897L258.869 370.958L259.337 369.014ZM496.253 426.014L259.337 369.014L258.869 370.958L495.785 427.958L496.253 426.014ZM496.361 426.04L496.253 426.014L495.785 427.958L495.893 427.984L496.361 426.04ZM496.036 426.01L495.928 426.032L496.327 427.992L496.435 427.97L496.036 426.01ZM719.398 380.51L496.036 426.01L496.435 427.97L719.797 382.47L719.398 380.51ZM719.627 380.463L719.398 380.51L719.797 382.47L720.027 382.423L719.627 380.463ZM719.057 380.763L718.946 380.97L720.708 381.916L720.819 381.71L719.057 380.763ZM795.082 239.263L719.057 380.763L720.819 381.71L796.844 240.21L795.082 239.263ZM794.609 240.144L795.49 240.618L796.437 238.856L795.556 238.382L794.609 240.144ZM720.049 381.03L795.963 239.737L794.202 238.79L718.287 380.084L720.049 381.03ZM496.345 426.968L719.368 381.537L718.968 379.577L495.945 425.008L496.345 426.968ZM259.359 370.048L495.911 426.96L496.379 425.016L259.826 368.103L259.359 370.048ZM206.89 234.179L258.659 369.433L260.526 368.718L208.758 233.464L206.89 234.179ZM207.248 235.113L208.182 234.755L207.467 232.887L206.533 233.245L207.248 235.113ZM279.524 346.13C279.944 347.062 280.689 347.797 281.657 348.366L282.669 346.641C281.963 346.226 281.556 345.772 281.347 345.308L279.524 346.13ZM279.26 343.295C279.044 344.27 279.124 345.224 279.521 346.122L281.35 345.315C281.136 344.828 281.083 344.311 281.212 343.728L279.26 343.295ZM280.63 340.595C279.945 341.436 279.472 342.336 279.26 343.295L281.212 343.728C281.345 343.129 281.652 342.507 282.18 341.859L280.63 340.595ZM292.442 326.113L280.63 340.595L282.18 341.859L293.992 327.378L292.442 326.113ZM296.704 327.633L293.723 325.883L292.711 327.608L295.691 329.358L296.704 327.633ZM285.161 343.609L296.972 329.127L295.422 327.863L283.611 342.345L285.161 343.609ZM284.836 344.236C284.865 344.073 284.952 343.864 285.161 343.609L283.611 342.345C283.239 342.801 282.97 343.313 282.868 343.879L284.836 344.236ZM284.793 344.037C284.736 344.003 284.769 344.007 284.804 344.076C284.822 344.109 284.832 344.145 284.836 344.177C284.841 344.207 284.838 344.224 284.838 344.221L282.865 343.893C282.805 344.252 282.842 344.635 283.028 344.994C283.208 345.344 283.488 345.59 283.781 345.762L284.793 344.037ZM284.943 344.059C284.918 344.071 284.903 344.075 284.897 344.076C284.891 344.077 284.889 344.077 284.889 344.077C284.888 344.077 284.881 344.077 284.867 344.072C284.853 344.068 284.828 344.058 284.793 344.037L283.781 345.762C284.419 346.137 285.14 346.19 285.824 345.854L284.943 344.059ZM285.598 343.512C285.387 343.77 285.164 343.947 284.933 344.063L285.833 345.849C286.341 345.593 286.778 345.228 287.147 344.776L285.598 343.512ZM297.409 329.03L285.598 343.512L287.147 344.776L298.959 330.294L297.409 329.03ZM301.671 330.549L298.691 328.799L297.678 330.524L300.658 332.274L301.671 330.549ZM290.128 346.525L301.94 332.043L300.39 330.779L288.578 345.261L290.128 346.525ZM287.681 348.512C288.622 348.038 289.438 347.371 290.128 346.525L288.578 345.261C288.054 345.903 287.456 346.386 286.782 346.725L287.681 348.512ZM284.708 349.23C285.754 349.234 286.752 348.991 287.69 348.507L286.773 346.73C286.115 347.069 285.434 347.233 284.717 347.23L284.708 349.23ZM281.657 348.366C282.623 348.933 283.646 349.232 284.715 349.23L284.711 347.23C284.035 347.231 283.359 347.046 282.669 346.641L281.657 348.366ZM302.602 332.078L287.736 350.304L289.286 351.568L304.152 333.342L302.602 332.078ZM310.975 336.011L303.883 331.848L302.871 333.572L309.963 337.736L310.975 336.011ZM308.999 340.258L311.244 337.506L309.694 336.242L307.449 338.994L308.999 340.258ZM303.606 338.075L307.718 340.489L308.73 338.764L304.618 336.35L303.606 338.075ZM300.984 342.63L304.887 337.844L303.337 336.58L299.434 341.366L300.984 342.63ZM303.474 342.756L300.715 341.136L299.702 342.861L302.462 344.481L303.474 342.756ZM301.498 347.003L303.743 344.25L302.193 342.986L299.948 345.739L301.498 347.003ZM297.457 345.613L300.217 347.233L301.229 345.509L298.47 343.888L297.457 345.613ZM292.266 353.318L298.738 345.383L297.189 344.119L290.716 352.054L292.266 353.318ZM288.005 351.799L290.985 353.548L291.998 351.824L289.017 350.074L288.005 351.799ZM297.86 356.894C298.279 357.824 299.018 358.558 299.979 359.122L300.992 357.397C300.297 356.989 299.893 356.539 299.683 356.072L297.86 356.894ZM297.579 354.064C297.376 355.04 297.462 355.992 297.856 356.887L299.686 356.08C299.47 355.589 299.414 355.064 299.537 354.472L297.579 354.064ZM298.953 351.352C298.267 352.192 297.795 353.092 297.582 354.051L299.535 354.484C299.667 353.886 299.974 353.263 300.502 352.616L298.953 351.352ZM307.71 340.614L298.953 351.352L300.502 352.616L309.26 341.878L307.71 340.614ZM310.139 338.622C309.212 339.094 308.403 339.765 307.71 340.614L309.26 341.878C309.794 341.224 310.39 340.739 311.047 340.404L310.139 338.622ZM313.11 337.902C312.077 337.904 311.084 338.147 310.143 338.62L311.042 340.407C311.716 340.068 312.402 339.903 313.113 339.902L313.11 337.902ZM316.181 338.774C315.215 338.207 314.189 337.906 313.116 337.902L313.107 339.902C313.796 339.905 314.479 340.094 315.169 340.499L316.181 338.774ZM318.29 341.001C317.879 340.07 317.141 339.338 316.181 338.774L315.169 340.499C315.864 340.907 316.259 341.353 316.46 341.808L318.29 341.001ZM318.564 343.837C318.782 342.857 318.694 341.897 318.287 340.994L316.463 341.816C316.686 342.309 316.74 342.826 316.612 343.404L318.564 343.837ZM317.208 346.544C317.896 345.701 318.365 344.794 318.567 343.824L316.609 343.416C316.484 344.015 316.183 344.636 315.658 345.28L317.208 346.544ZM308.45 357.282L317.208 346.544L315.658 345.28L306.9 356.018L308.45 357.282ZM306.003 359.268C306.944 358.795 307.76 358.128 308.45 357.282L306.9 356.018C306.377 356.659 305.778 357.142 305.104 357.481L306.003 359.268ZM303.031 359.986C304.076 359.991 305.074 359.747 306.012 359.264L305.096 357.486C304.438 357.825 303.756 357.989 303.039 357.986L303.031 359.986ZM299.979 359.122C300.945 359.689 301.969 359.988 303.037 359.986L303.033 357.986C302.358 357.988 301.682 357.802 300.992 357.397L299.979 359.122ZM303.265 354.807C303.238 354.821 303.22 354.826 303.212 354.828C303.205 354.83 303.202 354.83 303.202 354.83C303.201 354.83 303.196 354.83 303.184 354.826C303.172 354.822 303.149 354.813 303.115 354.793L302.103 356.518C302.753 356.9 303.482 356.938 304.166 356.593L303.265 354.807ZM303.92 354.268C303.727 354.504 303.507 354.682 303.256 354.812L304.175 356.589C304.677 356.329 305.109 355.974 305.47 355.532L303.92 354.268ZM312.677 343.531L303.92 354.268L305.47 355.532L314.227 344.795L312.677 343.531ZM312.982 342.929C312.951 343.099 312.866 343.299 312.677 343.531L314.227 344.795C314.591 344.348 314.849 343.844 314.95 343.286L312.982 342.929ZM313.045 343.103C313.093 343.131 313.052 343.12 313.015 343.043C312.998 343.006 312.989 342.97 312.986 342.942C312.983 342.915 312.987 342.905 312.985 342.916L314.948 343.299C315.017 342.942 314.997 342.552 314.819 342.179C314.644 341.813 314.359 341.555 314.057 341.378L313.045 343.103ZM312.871 343.123C312.954 343.084 312.994 343.084 312.998 343.084C313.002 343.084 313.005 343.085 313.009 343.086C313.014 343.087 313.025 343.091 313.045 343.103L314.057 341.378C313.401 340.993 312.683 341.004 312.026 341.31L312.871 343.123ZM312.24 343.628C312.428 343.399 312.639 343.233 312.879 343.119L312.017 341.314C311.5 341.561 311.056 341.916 310.691 342.364L312.24 343.628ZM303.483 354.366L312.24 343.628L310.691 342.364L301.933 353.101L303.483 354.366ZM303.165 354.993C303.202 354.805 303.294 354.596 303.483 354.366L301.933 353.101C301.568 353.548 301.311 354.052 301.202 354.609L303.165 354.993ZM303.115 354.793C303.062 354.762 303.099 354.77 303.136 354.843C303.153 354.878 303.163 354.914 303.167 354.944C303.17 354.973 303.167 354.986 303.168 354.98L301.2 354.623C301.135 354.981 301.163 355.368 301.345 355.734C301.523 356.092 301.806 356.344 302.103 356.518L303.115 354.793ZM657.23 373.947L640.829 357.088L639.395 358.483L655.796 375.341L657.23 373.947ZM658.771 371.842L655.94 373.825L657.087 375.463L659.918 373.481L658.771 371.842ZM651.487 366.019L658.627 373.359L660.061 371.964L652.92 364.625L651.487 366.019ZM653.832 362.961L651.63 364.503L652.777 366.141L654.979 364.599L653.832 362.961ZM662.263 370.422L655.122 363.083L653.689 364.477L660.829 371.817L662.263 370.422ZM663.803 368.318L660.972 370.3L662.12 371.939L664.95 369.956L663.803 368.318ZM647.259 352.976L663.66 369.835L665.094 368.44L648.693 351.582L647.259 352.976ZM645.719 355.081L648.549 353.098L647.402 351.46L644.571 353.442L645.719 355.081ZM652.645 360.537L645.862 353.564L644.428 354.959L651.212 361.931L652.645 360.537ZM650.3 363.595L652.502 362.053L651.355 360.415L649.153 361.957L650.3 363.595ZM642.226 356.501L649.01 363.473L650.443 362.079L643.66 355.106L642.226 356.501ZM640.686 358.605L643.517 356.622L642.37 354.984L639.539 356.967L640.686 358.605ZM669.85 364.392C669.185 364.858 668.512 365.105 667.824 365.165L667.997 367.158C669.07 367.064 670.073 366.678 670.997 366.03L669.85 364.392ZM671.029 362.989C670.867 363.454 670.511 363.929 669.85 364.392L670.997 366.03C671.909 365.392 672.586 364.603 672.919 363.643L671.029 362.989ZM671.045 361.4C671.221 361.961 671.211 362.476 671.031 362.981L672.916 363.651C673.247 362.719 673.254 361.757 672.953 360.8L671.045 361.4ZM669.934 359.618C670.514 360.215 670.866 360.805 671.041 361.388L672.957 360.812C672.672 359.866 672.126 359.004 671.367 358.224L669.934 359.618ZM656.902 346.224L669.934 359.618L671.367 358.224L658.336 344.829L656.902 346.224ZM655.362 348.328L658.193 346.345L657.045 344.707L654.214 346.69L655.362 348.328ZM668.536 360.206L655.505 346.811L654.071 348.206L667.103 361.601L668.536 360.206ZM669.415 361.633C669.253 361.095 668.94 360.621 668.536 360.206L667.103 361.601C667.339 361.843 667.451 362.048 667.5 362.211L669.415 361.633ZM668.654 363.622C668.932 363.428 669.2 363.159 669.357 362.793C669.52 362.41 669.524 362.012 669.419 361.646L667.496 362.198C667.495 362.192 667.489 362.167 667.49 362.127C667.492 362.085 667.502 362.043 667.518 362.006C667.549 361.933 667.579 361.933 667.507 361.984L668.654 363.622ZM666.661 363.88C667.349 364.131 668.051 364.045 668.654 363.622L667.507 361.984C667.458 362.018 667.436 362.02 667.436 362.02C667.434 362.02 667.409 362.024 667.345 362.001L666.661 363.88ZM665.215 362.923C665.629 363.347 666.107 363.672 666.651 363.877L667.355 362.005C667.111 361.913 666.876 361.761 666.649 361.528L665.215 362.923ZM652.184 349.528L665.215 362.922L666.649 361.528L653.617 348.133L652.184 349.528ZM650.643 351.632L653.474 349.649L652.327 348.011L649.496 349.994L650.643 351.632ZM663.818 363.51L650.787 350.115L649.353 351.51L662.385 364.905L663.818 363.51ZM665.735 364.828C665.037 364.541 664.399 364.107 663.818 363.51L662.385 364.905C663.143 365.684 664.007 366.28 664.974 366.678L665.735 364.828ZM667.83 365.165C667.12 365.222 666.426 365.113 665.735 364.828L664.974 366.678C665.948 367.079 666.958 367.242 667.991 367.158L667.83 365.165ZM676.838 360.216L660.437 343.358L659.003 344.752L675.404 361.61L676.838 360.216ZM678.143 358.277L675.548 360.094L676.695 361.732L679.29 359.915L678.143 358.277ZM668.694 350.229L677.999 359.793L679.433 358.399L670.128 348.834L668.694 350.229ZM668.995 348.602L668.838 348.712L669.985 350.351L670.142 350.241L668.995 348.602ZM671.089 349.185L670.094 348.571L669.043 350.272L670.037 350.887L671.089 349.185ZM682.502 355.941L671.072 349.175L670.054 350.897L681.483 357.662L682.502 355.941ZM683.804 354.312L681.419 355.982L682.566 357.621L684.952 355.95L683.804 354.312ZM667.26 338.97L683.661 355.828L685.095 354.434L668.694 337.576L667.26 338.97ZM665.956 340.909L668.551 339.092L667.403 337.454L664.808 339.271L665.956 340.909ZM675.404 348.957L666.099 339.393L664.665 340.787L673.97 350.352L675.404 348.957ZM675.103 350.584L675.261 350.474L674.113 348.836L673.956 348.946L675.103 350.584ZM673.009 350.001L674.004 350.615L675.055 348.914L674.061 348.299L673.009 350.001ZM661.839 343.05L673.007 349.999L674.064 348.301L662.896 341.352L661.839 343.05ZM660.294 344.874L662.941 343.02L661.794 341.382L659.147 343.236L660.294 344.874ZM689.067 351.652L675.143 337.34L673.709 338.735L687.633 353.047L689.067 351.652ZM690.607 349.548L687.776 351.531L688.924 353.169L691.754 351.186L690.607 349.548ZM676.54 336.752L690.464 351.065L691.898 349.67L677.974 335.358L676.54 336.752ZM679.357 333.364L676.683 335.236L677.83 336.874L680.504 335.002L679.357 333.364ZM676.737 332.334L679.214 334.88L680.647 333.486L678.17 330.94L676.737 332.334ZM669.849 338.183L678.027 332.456L676.88 330.818L668.702 336.545L669.849 338.183ZM672.469 339.212L669.992 336.666L668.559 338.061L671.035 340.607L672.469 339.212ZM673.852 337.218L671.179 339.091L672.326 340.729L674.999 338.857L673.852 337.218ZM695.883 346.879L679.482 330.021L678.048 331.416L694.449 348.274L695.883 346.879ZM701.067 342.224L694.592 346.758L695.74 348.396L702.214 343.862L701.067 342.224ZM698.447 341.194L700.924 343.74L702.357 342.346L699.88 339.8L698.447 341.194ZM696.094 343.868L699.737 341.316L698.59 339.678L694.946 342.229L696.094 343.868ZM690.184 338.998L694.803 343.746L696.237 342.351L691.618 337.603L690.184 338.998ZM692.949 335.646L690.327 337.482L691.475 339.12L694.096 337.284L692.949 335.646ZM690.395 334.685L692.805 337.162L694.239 335.768L691.829 333.291L690.395 334.685ZM689.065 336.643L691.686 334.807L690.539 333.169L687.917 335.004L689.065 336.643ZM683.356 331.979L687.774 336.521L689.208 335.126L684.79 330.585L683.356 331.979ZM687.143 327.912L683.499 330.463L684.646 332.101L688.29 329.55L687.143 327.912ZM684.523 326.882L686.999 329.428L688.433 328.033L685.956 325.487L684.523 326.882ZM679.339 331.538L685.813 327.004L684.666 325.366L678.191 329.899L679.339 331.538ZM704.458 340.874L688.057 324.016L686.623 325.411L703.024 342.269L704.458 340.874ZM705.999 338.77L703.168 340.753L704.315 342.391L707.146 340.409L705.999 338.77ZM698.938 333.176L705.855 340.287L707.289 338.892L700.371 331.782L698.938 333.176ZM699.579 331.311L699.081 331.66L700.228 333.298L700.726 332.95L699.579 331.311ZM709.244 337.303L700.728 331.312L699.577 332.948L708.094 338.939L709.244 337.303ZM710.926 335.319L708.095 337.302L709.243 338.94L712.074 336.958L710.926 335.319ZM701.209 330.296L710.935 336.963L712.065 335.314L702.34 328.647L701.209 330.296ZM700.723 327.289C700.976 328.111 700.97 328.715 700.824 329.16L702.725 329.783C703.038 328.827 702.967 327.78 702.633 326.699L700.723 327.289ZM699.139 324.822C699.983 325.69 700.487 326.512 700.721 327.284L702.635 326.704C702.284 325.546 701.573 324.455 700.573 323.427L699.139 324.822ZM694.967 322.332C696.287 322.543 697.679 323.321 699.139 324.822L700.573 323.427C698.923 321.732 697.162 320.657 695.282 320.357L694.967 322.332ZM690.745 323.55C692.287 322.471 693.678 322.122 694.963 322.332L695.286 320.358C693.356 320.043 691.446 320.618 689.598 321.912L690.745 323.55ZM687.914 325.533L690.745 323.55L689.598 321.912L686.767 323.895L687.914 325.533ZM697.997 331.005C698.621 330.568 699.145 330.005 699.343 329.278L697.413 328.753C697.386 328.852 697.274 329.069 696.85 329.366L697.997 331.005ZM691.842 325.883L696.707 330.883L698.14 329.488L693.276 324.488L691.842 325.883ZM695.134 323.738C694.035 323.391 692.956 323.686 691.985 324.366L693.132 326.005C693.752 325.571 694.189 325.537 694.532 325.645L695.134 323.738ZM697.805 325.52C696.958 324.65 696.065 324.014 695.117 323.733L694.549 325.651C695.046 325.798 695.656 326.179 696.371 326.914L697.805 325.52ZM699.08 327.238C698.787 326.652 698.35 326.08 697.805 325.52L696.371 326.914C696.823 327.378 697.117 327.785 697.291 328.133L699.08 327.238ZM699.348 329.258C699.522 328.561 699.397 327.872 699.08 327.238L697.291 328.133C697.441 328.431 697.444 328.629 697.408 328.773L699.348 329.258ZM716.123 331.989C715.43 332.474 714.805 332.745 714.246 332.852L714.62 334.816C715.523 334.645 716.407 334.232 717.27 333.628L716.123 331.989ZM717.273 330.789C717.089 331.154 716.734 331.561 716.123 331.989L717.27 333.628C718.056 333.077 718.681 332.438 719.059 331.69L717.273 330.789ZM717.519 329.586C717.558 329.989 717.483 330.381 717.277 330.781L719.055 331.697C719.428 330.972 719.587 330.198 719.51 329.396L717.519 329.586ZM717.047 328.147C717.337 328.657 717.483 329.129 717.518 329.571L719.512 329.411C719.45 328.636 719.197 327.883 718.787 327.16L717.047 328.147ZM715.783 326.509C716.322 327.063 716.74 327.611 717.049 328.151L718.785 327.157C718.38 326.449 717.853 325.769 717.217 325.115L715.783 326.509ZM712.874 324.676C713.999 325.059 714.964 325.668 715.783 326.509L717.217 325.115C716.176 324.045 714.939 323.266 713.518 322.783L712.874 324.676ZM708.516 323.472C710.199 323.849 711.648 324.251 712.868 324.674L713.524 322.785C712.215 322.331 710.69 321.91 708.954 321.52L708.516 323.472ZM704.805 322.469C705.817 322.803 707.055 323.136 708.511 323.471L708.958 321.521C707.539 321.195 706.366 320.878 705.431 320.57L704.805 322.469ZM702.004 320.772C702.756 321.545 703.701 322.105 704.805 322.469L705.431 320.57C704.589 320.292 703.935 319.888 703.438 319.377L702.004 320.772ZM700.865 319.094C701.057 319.677 701.487 320.24 702.004 320.772L703.438 319.377C702.988 318.915 702.813 318.616 702.765 318.468L700.865 319.094ZM701.6 317.017C701.305 317.223 701.024 317.512 700.874 317.91C700.717 318.322 700.743 318.738 700.869 319.105L702.761 318.456C702.758 318.449 702.765 318.465 702.765 318.5C702.766 318.536 702.759 318.578 702.744 318.619C702.712 318.702 702.675 318.705 702.747 318.655L701.6 317.017ZM703.103 316.66C702.567 316.583 702.047 316.703 701.6 317.017L702.747 318.655C702.758 318.647 702.766 318.643 702.77 318.641C702.774 318.639 702.776 318.639 702.777 318.639C702.777 318.639 702.789 318.635 702.821 318.64L703.103 316.66ZM704.368 317.123C703.971 316.889 703.548 316.723 703.103 316.66L702.821 318.64C702.956 318.659 703.132 318.716 703.354 318.846L704.368 317.123ZM705.449 317.915C705.099 317.607 704.739 317.341 704.368 317.123L703.354 318.846C703.601 318.992 703.859 319.18 704.127 319.416L705.449 317.915ZM706.383 318.78C706.083 318.472 705.764 318.178 705.428 317.897L704.148 319.434C704.432 319.671 704.699 319.918 704.949 320.175L706.383 318.78ZM707.573 316.541L705.018 318.716L706.314 320.239L708.869 318.064L707.573 316.541ZM705.691 316.486C706.297 316.878 706.902 317.38 707.504 318L708.938 316.605C708.246 315.894 707.528 315.293 706.78 314.808L705.691 316.486ZM703.925 315.671C704.503 315.817 705.087 316.081 705.679 316.477L706.792 314.816C706.033 314.307 705.241 313.941 704.416 313.732L703.925 315.671ZM702.252 315.619C702.821 315.507 703.371 315.525 703.915 315.668L704.427 313.735C703.585 313.512 702.727 313.487 701.866 313.657L702.252 315.619ZM700.486 316.421C701.121 315.976 701.707 315.723 702.246 315.62L701.872 313.656C700.998 313.822 700.153 314.212 699.338 314.783L700.486 316.421ZM699.535 317.443C699.706 317.104 700.004 316.758 700.486 316.421L699.338 314.783C698.649 315.265 698.1 315.847 697.75 316.541L699.535 317.443ZM699.289 318.601C699.271 318.185 699.353 317.804 699.535 317.443L697.75 316.541C697.41 317.214 697.257 317.936 697.291 318.691L699.289 318.601ZM699.678 319.949C699.428 319.456 699.309 319.007 699.289 318.598L697.292 318.694C697.327 319.428 697.538 320.15 697.893 320.852L699.678 319.949ZM700.771 321.438C700.279 320.931 699.921 320.436 699.68 319.953L697.891 320.848C698.24 321.546 698.729 322.207 699.337 322.832L700.771 321.438ZM702.931 323.012C702.108 322.599 701.39 322.074 700.771 321.438L699.337 322.832C700.116 323.633 701.017 324.289 702.033 324.799L702.931 323.012ZM705.895 324.114C704.776 323.802 703.787 323.432 702.922 323.008L702.041 324.803C703.033 325.29 704.14 325.701 705.359 326.04L705.895 324.114ZM709.789 325.056C708.347 324.741 707.047 324.426 705.889 324.112L705.365 326.042C706.562 326.367 707.894 326.689 709.362 327.01L709.789 325.056ZM712.422 325.859C711.575 325.52 710.696 325.252 709.787 325.056L709.364 327.011C710.167 327.184 710.938 327.419 711.679 327.716L712.422 325.859ZM714.661 327.29C714.072 326.684 713.312 326.215 712.422 325.859L711.679 327.716C712.377 327.995 712.879 328.326 713.228 328.684L714.661 327.29ZM715.833 329.085C715.611 328.437 715.197 327.841 714.661 327.29L713.228 328.684C713.629 329.096 713.843 329.448 713.941 329.733L715.833 329.085ZM715.061 331.357C715.393 331.124 715.69 330.803 715.844 330.37C716 329.93 715.967 329.488 715.836 329.094L713.938 329.725C713.95 329.759 713.949 329.77 713.948 329.761C713.948 329.756 713.948 329.747 713.95 329.736C713.952 329.725 713.955 329.713 713.959 329.701C713.963 329.689 713.968 329.68 713.972 329.673C713.976 329.667 713.978 329.664 713.977 329.666C713.974 329.669 713.957 329.688 713.913 329.719L715.061 331.357ZM713.487 331.728C714.045 331.805 714.589 331.687 715.061 331.357L713.913 329.719C713.878 329.743 713.846 329.759 713.76 329.747L713.487 331.728ZM712.121 331.212C712.549 331.466 712.998 331.65 713.465 331.725L713.782 329.75C713.622 329.724 713.41 329.651 713.142 329.492L712.121 331.212ZM710.916 330.312C711.309 330.65 711.702 330.946 712.095 331.196L713.168 329.508C712.869 329.318 712.553 329.082 712.221 328.796L710.916 330.312ZM709.775 329.212C710.147 329.594 710.521 329.956 710.899 330.297L712.239 328.812C711.895 328.501 711.551 328.17 711.209 327.818L709.775 329.212ZM708.585 331.452L711.14 329.277L709.844 327.754L707.288 329.929L708.585 331.452ZM710.696 331.795C710.039 331.316 709.358 330.717 708.653 329.993L707.22 331.387C707.988 332.177 708.753 332.853 709.516 333.411L710.696 331.795ZM712.549 332.746C711.954 332.562 711.333 332.25 710.686 331.789L709.526 333.417C710.316 333.981 711.127 334.4 711.96 334.657L712.549 332.746ZM714.257 332.85C713.675 332.954 713.11 332.919 712.549 332.746L711.96 334.657C712.826 334.924 713.714 334.978 714.608 334.819L714.257 332.85Z" fill="black" mask="url(#path-1-inside-1_0_1)"/>
<path d="M498.121 422.602L497.59 421.755L497.128 422.045L497.121 422.591L498.121 422.602ZM795.523 235.98L796.055 236.827L797.388 235.99L796.064 235.138L795.523 235.98ZM498.121 422.678L497.575 423.516L499.1 424.508L499.12 422.689L498.121 422.678ZM498.062 422.64L498.607 421.801L498.072 421.453L497.531 421.793L498.062 422.64ZM497.488 423L496.488 422.993L496.475 424.816L498.019 423.847L497.488 423ZM497.492 422.269L498.492 422.276L498.496 421.729L498.038 421.431L497.492 422.269ZM205 231.858L204.47 231.01L203.14 231.84L204.454 232.696L205 231.858ZM500.008 47.5337L500.538 48.3818L501.005 48.0904L501.008 47.5405L500.008 47.5337ZM500.018 46.0547L500.559 45.2135L499.03 44.2311L499.018 46.048L500.018 46.0547ZM501.18 46.8015L500.639 47.6428L501.173 47.9854L501.71 47.6496L501.18 46.8015ZM502.463 46L503.463 46.0115L503.484 44.1829L501.933 45.1519L502.463 46ZM502.444 47.6141L501.444 47.6025L501.438 48.156L501.904 48.4553L502.444 47.6141ZM526.65 220.961L527.136 220.086L526.65 220.961ZM556.957 211.953L556.162 211.347L556.957 211.953ZM523.995 193.658L524.79 194.263L523.995 193.658ZM554.302 184.65L554.787 183.775L554.302 184.65ZM476.976 193.431L476.194 194.055L476.976 193.431ZM475.009 220.776L474.506 219.912L475.009 220.776ZM446.449 184.982L445.946 184.117L446.449 184.982ZM444.482 212.327L445.264 211.703L444.482 212.327ZM480.209 240.529L479.915 239.573L478.858 239.898L479.288 240.917L480.209 240.529ZM491.624 267.597L490.702 267.986L491.053 268.819L491.917 268.553L491.624 267.597ZM481.165 240.235L482.086 239.846L481.735 239.013L480.871 239.279L481.165 240.235ZM492.579 267.304L492.873 268.26L493.931 267.935L493.501 266.915L492.579 267.304ZM497.965 267.597L497.093 267.107L496.539 268.094L497.586 268.523L497.965 267.597ZM513.184 240.529L513.563 239.603L512.746 239.268L512.312 240.039L513.184 240.529ZM498.89 267.977L498.511 268.902L499.329 269.237L499.762 268.467L498.89 267.977ZM514.109 240.908L514.981 241.398L515.536 240.412L514.489 239.983L514.109 240.908ZM472.6 288.17H471.6V289.17H472.6V288.17ZM527.135 288.17V289.17H528.135V288.17H527.135ZM472.6 287.17V286.17H471.6V287.17H472.6ZM527.135 287.17H528.135V286.17H527.135V287.17ZM258.753 369.679L259.687 369.321L259.687 369.321L258.753 369.679ZM206.89 234.179L206.533 233.245L205.599 233.602L205.956 234.536L206.89 234.179ZM258.847 369.925L257.913 370.282L258.101 370.774L258.613 370.897L258.847 369.925ZM259.103 369.986L258.869 370.958H258.869L259.103 369.986ZM496.019 426.986L495.785 427.958L495.785 427.958L496.019 426.986ZM496.127 427.012L495.893 427.984L496.109 428.036L496.327 427.992L496.127 427.012ZM496.236 426.99L496.435 427.97H496.435L496.236 426.99ZM719.597 381.49L719.398 380.51L719.597 381.49ZM719.827 381.443L720.027 382.423L720.486 382.329L720.708 381.916L719.827 381.443ZM719.938 381.237L720.819 381.71V381.71L719.938 381.237ZM795.963 239.737L796.844 240.21L797.318 239.329L796.437 238.856L795.963 239.737ZM795.082 239.263L795.556 238.382L794.675 237.909L794.202 238.79L795.082 239.263ZM719.168 380.557L719.368 381.537L719.827 381.443L720.049 381.03L719.168 380.557ZM496.145 425.988L495.911 426.96L496.127 427.012L496.345 426.968L496.145 425.988ZM259.593 369.075L258.659 369.433L258.847 369.925L259.359 370.048L259.593 369.075ZM207.824 233.821L208.758 233.464L208.401 232.53L207.467 232.887L207.824 233.821ZM280.435 345.719L279.52 346.122L279.524 346.13L280.435 345.719ZM282.163 347.503L282.669 346.641H282.669L282.163 347.503ZM281.405 341.227L282.18 341.859L281.405 341.227ZM293.217 326.746L293.723 325.883L292.984 325.449L292.442 326.113L293.217 326.746ZM296.197 328.495L296.972 329.127L297.71 328.223L296.704 327.633L296.197 328.495ZM284.386 342.977L285.161 343.609L285.161 343.609L284.386 342.977ZM283.852 344.057L282.868 343.879L282.866 343.886L282.865 343.893L283.852 344.057ZM284.287 344.899L283.781 345.762L283.781 345.762L284.287 344.899ZM285.383 344.956L285.824 345.854L285.833 345.849L285.383 344.956ZM286.373 344.144L285.598 343.512H285.598L286.373 344.144ZM298.184 329.662L298.691 328.799L297.951 328.365L297.409 329.03L298.184 329.662ZM301.165 331.411L301.94 332.043L302.677 331.14L301.671 330.549L301.165 331.411ZM289.353 345.893L290.128 346.525L289.353 345.893ZM287.232 347.618L286.782 346.725L286.773 346.73L287.232 347.618ZM284.713 348.23L284.717 347.23H284.711L284.713 348.23ZM303.377 332.71L303.883 331.848L303.144 331.414L302.602 332.078L303.377 332.71ZM288.511 350.936L287.736 350.304L286.999 351.208L288.005 351.799L288.511 350.936ZM310.469 336.874L311.244 337.506L311.981 336.602L310.975 336.011L310.469 336.874ZM308.224 339.626L307.718 340.489L308.457 340.923L308.999 340.258L308.224 339.626ZM304.112 337.212L304.618 336.35L303.879 335.916L303.337 336.58L304.112 337.212ZM300.209 341.998L299.434 341.366L298.696 342.27L299.702 342.861L300.209 341.998ZM302.968 343.618L303.743 344.25L304.48 343.347L303.474 342.756L302.968 343.618ZM300.723 346.371L300.217 347.233L300.956 347.667L301.498 347.003L300.723 346.371ZM297.964 344.751L298.47 343.888L297.731 343.454L297.189 344.119L297.964 344.751ZM291.491 352.686L290.985 353.548L291.724 353.983L292.266 353.318L291.491 352.686ZM298.771 356.483L297.856 356.887L297.86 356.894L298.771 356.483ZM300.485 358.26L300.992 357.397H300.992L300.485 358.26ZM298.558 354.268L297.582 354.051L297.579 354.064L298.558 354.268ZM299.727 351.984L300.502 352.616L299.727 351.984ZM308.485 341.246L309.26 341.878H309.26L308.485 341.246ZM310.593 339.513L310.143 338.62L310.139 338.622L310.593 339.513ZM313.111 338.902L313.116 337.902H313.11L313.111 338.902ZM317.375 341.405L316.46 341.808L316.463 341.816L317.375 341.405ZM317.588 343.62L316.612 343.404L316.609 343.416L317.588 343.62ZM316.433 345.912L315.658 345.28L316.433 345.912ZM307.675 356.65L306.9 356.018H306.9L307.675 356.65ZM305.554 358.375L305.104 357.481L305.096 357.486L305.554 358.375ZM303.035 358.986L303.039 357.986H303.033L303.035 358.986ZM303.715 355.7L304.166 356.593L304.175 356.589L303.715 355.7ZM302.609 355.656L303.115 354.793L303.115 354.793L302.609 355.656ZM304.695 354.9L305.47 355.532L304.695 354.9ZM313.452 344.163L312.677 343.531L313.452 344.163ZM313.966 343.107L312.985 342.916L312.982 342.929L313.966 343.107ZM313.551 342.24L314.057 341.378L314.057 341.378L313.551 342.24ZM312.448 342.216L312.026 341.31L312.017 341.314L312.448 342.216ZM311.465 342.996L310.691 342.364H310.691L311.465 342.996ZM302.708 353.734L303.483 354.366H303.483L302.708 353.734ZM302.184 354.801L301.202 354.609L301.2 354.623L302.184 354.801ZM656.513 374.644L655.796 375.341L656.39 375.951L657.087 375.463L656.513 374.644ZM640.112 357.786L639.539 356.967L638.576 357.641L639.395 358.483L640.112 357.786ZM659.344 372.661L659.918 373.481L660.88 372.806L660.061 371.964L659.344 372.661ZM652.204 365.322L651.63 364.503L650.667 365.177L651.487 366.019L652.204 365.322ZM654.405 363.78L655.122 363.083L654.529 362.473L653.832 362.961L654.405 363.78ZM661.546 371.12L660.829 371.817L661.423 372.427L662.12 371.939L661.546 371.12ZM664.377 369.137L664.95 369.956L665.913 369.282L665.094 368.44L664.377 369.137ZM647.976 352.279L648.693 351.582L648.099 350.972L647.402 351.46L647.976 352.279ZM645.145 354.261L644.571 353.442L643.609 354.116L644.428 354.959L645.145 354.261ZM651.928 361.234L652.502 362.053L653.465 361.379L652.645 360.537L651.928 361.234ZM649.727 362.776L649.01 363.473L649.603 364.083L650.3 363.595L649.727 362.776ZM642.943 355.803L643.66 355.106L643.067 354.496L642.37 354.984L642.943 355.803ZM670.424 365.211L669.85 364.392H669.85L670.424 365.211ZM667.911 366.161L667.991 367.158L667.997 367.158L667.911 366.161ZM671.974 363.316L671.031 362.981L671.029 362.989L671.974 363.316ZM671.999 361.1L671.041 361.388L671.045 361.4L671.999 361.1ZM670.65 358.921L669.934 359.618L670.65 358.921ZM657.619 345.526L658.336 344.829L657.742 344.219L657.045 344.707L657.619 345.526ZM654.788 347.509L654.214 346.69L653.252 347.364L654.071 348.206L654.788 347.509ZM667.82 360.904L667.103 361.601L667.82 360.904ZM668.458 361.922L669.419 361.646L669.415 361.633L668.458 361.922ZM668.081 362.803L668.654 363.622H668.654L668.081 362.803ZM667.003 362.941L666.651 363.877L666.661 363.88L667.003 362.941ZM665.932 362.225L665.215 362.922L665.215 362.923L665.932 362.225ZM652.901 348.83L653.617 348.133L653.024 347.523L652.327 348.011L652.901 348.83ZM650.07 350.813L649.496 349.994L648.534 350.668L649.353 351.51L650.07 350.813ZM663.101 364.208L662.385 364.905L663.101 364.208ZM676.121 360.913L675.404 361.61L675.998 362.22L676.695 361.732L676.121 360.913ZM659.72 344.055L659.147 343.236L658.184 343.91L659.003 344.752L659.72 344.055ZM678.716 359.096L679.29 359.915L680.252 359.241L679.433 358.399L678.716 359.096ZM669.411 349.531L668.838 348.712L667.875 349.386L668.694 350.229L669.411 349.531ZM669.568 349.421L670.094 348.571L669.534 348.225L668.995 348.602L669.568 349.421ZM670.563 350.036L670.037 350.887L670.045 350.892L670.054 350.897L670.563 350.036ZM681.993 356.801L681.483 357.662L682.038 357.99L682.566 357.621L681.993 356.801ZM684.378 355.131L684.952 355.95L685.914 355.276L685.095 354.434L684.378 355.131ZM667.977 338.273L668.694 337.576L668.1 336.966L667.403 337.454L667.977 338.273ZM665.382 340.09L664.808 339.271L663.846 339.945L664.665 340.787L665.382 340.09ZM674.687 349.655L675.261 350.474L676.223 349.8L675.404 348.957L674.687 349.655ZM674.53 349.765L674.004 350.615L674.564 350.962L675.103 350.584L674.53 349.765ZM673.535 349.15L673.007 349.999L673.009 350.001L673.535 349.15ZM662.368 342.201L662.896 341.352L662.335 341.003L661.794 341.382L662.368 342.201ZM688.35 352.35L687.633 353.047L688.227 353.657L688.924 353.169L688.35 352.35ZM674.426 338.037L675.143 337.34L674.549 336.73L673.852 337.218L674.426 338.037ZM691.181 350.367L691.754 351.186L692.717 350.512L691.898 349.67L691.181 350.367ZM677.257 336.055L676.683 335.236L675.721 335.91L676.54 336.752L677.257 336.055ZM679.93 334.183L680.504 335.002L681.467 334.328L680.647 333.486L679.93 334.183ZM677.454 331.637L678.17 330.94L677.577 330.33L676.88 330.818L677.454 331.637ZM669.275 337.364L668.702 336.545L667.739 337.219L668.559 338.061L669.275 337.364ZM671.752 339.91L671.035 340.607L671.629 341.217L672.326 340.729L671.752 339.91ZM695.166 347.577L694.449 348.274L695.043 348.884L695.74 348.396L695.166 347.577ZM678.765 330.719L678.191 329.899L677.229 330.574L678.048 331.416L678.765 330.719ZM701.64 343.043L702.214 343.862L703.177 343.188L702.357 342.346L701.64 343.043ZM699.163 340.497L699.88 339.8L699.287 339.19L698.59 339.678L699.163 340.497ZM695.52 343.048L694.803 343.746L695.397 344.356L696.094 343.868L695.52 343.048ZM690.901 338.301L690.327 337.482L689.365 338.156L690.184 338.998L690.901 338.301ZM693.522 336.465L694.096 337.284L695.058 336.61L694.239 335.768L693.522 336.465ZM691.112 333.988L691.829 333.291L691.236 332.681L690.539 333.169L691.112 333.988ZM688.491 335.823L687.774 336.521L688.368 337.131L689.065 336.643L688.491 335.823ZM684.073 331.282L683.499 330.463L682.536 331.137L683.356 331.979L684.073 331.282ZM687.716 328.731L688.29 329.55L689.253 328.876L688.433 328.033L687.716 328.731ZM685.239 326.185L685.956 325.487L685.363 324.878L684.666 325.366L685.239 326.185ZM703.741 341.572L703.024 342.269L703.618 342.879L704.315 342.391L703.741 341.572ZM687.34 324.714L686.767 323.895L685.804 324.569L686.623 325.411L687.34 324.714ZM706.572 339.589L707.146 340.409L708.108 339.734L707.289 338.892L706.572 339.589ZM699.655 332.479L699.081 331.66L698.118 332.334L698.938 333.176L699.655 332.479ZM700.153 332.13L700.728 331.312L700.154 330.909L699.579 331.311L700.153 332.13ZM708.669 338.121L708.094 338.939L708.668 339.343L709.243 338.94L708.669 338.121ZM711.5 336.139L712.074 336.958L713.256 336.13L712.065 335.314L711.5 336.139ZM701.775 329.471L700.824 329.16L700.591 329.873L701.209 330.296L701.775 329.471ZM701.678 326.994L700.721 327.284L700.723 327.289L701.678 326.994ZM699.856 324.125L699.139 324.822L699.856 324.125ZM695.124 321.345L694.963 322.332L694.967 322.332L695.124 321.345ZM690.171 322.731L689.598 321.912L690.171 322.731ZM697.423 330.186L696.707 330.883L697.3 331.493L697.997 331.005L697.423 330.186ZM698.378 329.015L699.343 329.278L699.346 329.268L699.348 329.258L698.378 329.015ZM692.559 325.185L691.985 324.366L691.023 325.04L691.842 325.883L692.559 325.185ZM694.833 324.692L694.532 325.645L694.54 325.648L694.549 325.651L694.833 324.692ZM697.088 326.217L697.805 325.52L697.088 326.217ZM698.186 327.685L697.291 328.133V328.133L698.186 327.685ZM716.696 332.808L716.123 331.989V331.989L716.696 332.808ZM714.433 333.834L714.608 334.819L714.62 334.816L714.433 333.834ZM718.166 331.239L717.277 330.781L717.273 330.789L718.166 331.239ZM718.515 329.491L717.518 329.571L717.519 329.578L717.519 329.586L718.515 329.491ZM717.917 327.654L718.787 327.16L718.785 327.157L717.917 327.654ZM716.5 325.812L717.217 325.115L717.217 325.115L716.5 325.812ZM713.196 323.729L712.868 324.674L712.874 324.676L713.196 323.729ZM708.735 322.496L708.511 323.471L708.516 323.472L708.735 322.496ZM705.118 321.519L705.431 320.57L705.118 321.519ZM702.721 320.074L702.004 320.772H702.004L702.721 320.074ZM701.815 318.781L702.765 318.468L702.761 318.456L701.815 318.781ZM702.173 317.836L701.6 317.017L702.173 317.836ZM702.962 317.65L702.821 318.64H702.821L702.962 317.65ZM703.861 317.984L703.354 318.846L703.354 318.846L703.861 317.984ZM704.788 318.666L704.127 319.416L704.137 319.425L704.148 319.434L704.788 318.666ZM705.666 319.478L704.949 320.175L705.602 320.846L706.314 320.239L705.666 319.478ZM708.221 317.303L708.869 318.064L709.683 317.371L708.938 316.605L708.221 317.303ZM706.236 315.647L705.679 316.477L705.685 316.482L705.691 316.486L706.236 315.647ZM704.171 314.702L703.915 315.669L703.925 315.671L704.171 314.702ZM702.059 314.638L702.246 315.62L702.252 315.619L702.059 314.638ZM699.912 315.602L700.486 316.421L699.912 315.602ZM698.29 318.646L697.291 318.691L697.292 318.694L698.29 318.646ZM698.786 320.401L699.68 319.953L699.678 319.949L698.786 320.401ZM700.054 322.135L699.337 322.832H699.337L700.054 322.135ZM702.482 323.905L702.033 324.799L702.041 324.803L702.482 323.905ZM705.627 325.077L705.359 326.04L705.365 326.042L705.627 325.077ZM709.576 326.033L709.362 327.01L709.364 327.011L709.576 326.033ZM712.05 326.788L711.679 327.716H711.679L712.05 326.788ZM714.887 329.409L715.836 329.094L715.833 329.085L714.887 329.409ZM714.487 330.538L713.913 329.719L713.913 329.719L714.487 330.538ZM713.624 330.737L713.465 331.725L713.476 331.727L713.487 331.728L713.624 330.737ZM712.632 330.352L712.095 331.196L712.108 331.204L712.121 331.212L712.632 330.352ZM711.569 329.554L710.899 330.297L710.908 330.304L710.916 330.312L711.569 329.554ZM710.492 328.515L711.209 327.818L710.556 327.147L709.844 327.754L710.492 328.515ZM707.937 330.69L707.288 329.929L706.475 330.621L707.22 331.387L707.937 330.69ZM710.106 332.603L709.516 333.411L709.526 333.417L710.106 332.603ZM498.653 423.449L796.055 236.827L794.992 235.133L497.59 421.755L498.653 423.449ZM499.12 422.689L499.121 422.614L497.121 422.591L497.121 422.666L499.12 422.689ZM497.517 423.478L497.575 423.516L498.666 421.839L498.607 421.801L497.517 423.478ZM498.019 423.847L498.594 423.487L497.531 421.793L496.956 422.153L498.019 423.847ZM496.492 422.262L496.488 422.993L498.487 423.007L498.492 422.276L496.492 422.262ZM204.454 232.696L496.947 423.107L498.038 421.431L205.546 231.02L204.454 232.696ZM499.478 46.6857L204.47 231.01L205.53 232.706L500.538 48.3818L499.478 46.6857ZM499.018 46.048L499.008 47.527L501.008 47.5405L501.018 46.0614L499.018 46.048ZM501.721 45.9603L500.559 45.2135L499.478 46.8959L500.639 47.6428L501.721 45.9603ZM501.933 45.1519L500.65 45.9535L501.71 47.6496L502.993 46.8481L501.933 45.1519ZM503.444 47.6256L503.463 46.0115L501.463 45.9885L501.444 47.6025L503.444 47.6256ZM796.064 235.138L502.985 46.7728L501.904 48.4553L794.982 236.821L796.064 235.138ZM500.501 348.721C520.26 348.721 537.971 335.177 550.686 313.663C563.415 292.126 571.256 262.439 571.256 229.701H569.256C569.256 262.144 561.482 291.467 548.965 312.645C536.434 333.846 519.267 346.721 500.501 346.721V348.721ZM429.747 229.701C429.747 262.439 437.587 292.126 450.316 313.663C463.032 335.177 480.742 348.721 500.501 348.721V346.721C481.736 346.721 464.569 333.846 452.038 312.645C439.521 291.467 431.747 262.144 431.747 229.701H429.747ZM500.501 110.681C480.742 110.681 463.032 124.225 450.316 145.74C437.587 167.276 429.747 196.963 429.747 229.701H431.747C431.747 197.258 439.521 167.936 452.038 146.757C464.569 125.557 481.736 112.681 500.501 112.681V110.681ZM571.256 229.701C571.256 196.963 563.415 167.276 550.686 145.74C537.971 124.225 520.26 110.681 500.501 110.681V112.681C519.267 112.681 536.434 125.557 548.965 146.757C561.482 167.936 569.256 197.258 569.256 229.701H571.256ZM526.165 221.835C535.822 227.195 549.908 222.86 557.753 212.559L556.162 211.347C548.735 221.1 535.683 224.83 527.136 220.086L526.165 221.835ZM523.199 193.052C519.251 198.237 517.542 204.045 518.05 209.272C518.56 214.514 521.304 219.137 526.165 221.835L527.136 220.086C522.894 217.732 520.492 213.717 520.041 209.078C519.588 204.422 521.103 199.105 524.79 194.263L523.199 193.052ZM554.787 183.775C545.13 178.415 531.044 182.75 523.199 193.052L524.79 194.263C532.217 184.511 545.269 180.78 553.817 185.524L554.787 183.775ZM557.753 212.559C561.701 207.374 563.41 201.565 562.902 196.339C562.392 191.097 559.648 186.473 554.787 183.775L553.817 185.524C558.058 187.878 560.46 191.893 560.911 196.533C561.364 201.188 559.849 206.505 556.162 211.347L557.753 212.559ZM476.194 194.055C480.004 198.83 481.653 204.119 481.317 208.782C480.983 213.428 478.684 217.482 474.506 219.912L475.512 221.641C480.307 218.852 482.935 214.177 483.312 208.925C483.689 203.691 481.834 197.916 477.758 192.807L476.194 194.055ZM446.952 185.846C455.374 180.948 468.52 184.435 476.194 194.055L477.758 192.807C469.659 182.657 455.471 178.579 445.946 184.117L446.952 185.846ZM445.264 211.703C441.454 206.928 439.805 201.639 440.141 196.976C440.475 192.33 442.774 188.276 446.952 185.846L445.946 184.117C441.151 186.906 438.524 191.581 438.146 196.833C437.769 202.067 439.624 207.841 443.7 212.951L445.264 211.703ZM474.506 219.912C466.084 224.809 452.939 221.322 445.264 211.703L443.7 212.951C451.799 223.101 465.988 227.179 475.512 221.641L474.506 219.912ZM479.288 240.917L490.702 267.986L492.545 267.209L481.131 240.14L479.288 240.917ZM480.871 239.279L479.915 239.573L480.503 241.485L481.459 241.191L480.871 239.279ZM493.501 266.915L482.086 239.846L480.244 240.623L491.658 267.692L493.501 266.915ZM491.917 268.553L492.873 268.26L492.286 266.348L491.33 266.642L491.917 268.553ZM498.837 268.088L514.056 241.019L512.312 240.039L497.093 267.107L498.837 268.088ZM499.269 267.051L498.344 266.672L497.586 268.523L498.511 268.902L499.269 267.051ZM513.238 240.418L498.019 267.487L499.762 268.467L514.981 241.398L513.238 240.418ZM512.805 241.454L513.73 241.833L514.489 239.983L513.563 239.603L512.805 241.454ZM472.6 289.17H527.135V287.17H472.6V289.17ZM471.6 287.17V288.17H473.6V287.17H471.6ZM527.135 286.17H472.6V288.17H527.135V286.17ZM528.135 288.17V287.17H526.135V288.17H528.135ZM259.687 369.321L207.824 233.821L205.956 234.536L257.819 370.036L259.687 369.321ZM259.781 369.567L259.687 369.321L257.819 370.036L257.913 370.282L259.781 369.567ZM259.337 369.014L259.081 368.952L258.613 370.897L258.869 370.958L259.337 369.014ZM496.253 426.014L259.337 369.014L258.869 370.958L495.785 427.958L496.253 426.014ZM496.361 426.04L496.253 426.014L495.785 427.958L495.893 427.984L496.361 426.04ZM496.036 426.01L495.928 426.032L496.327 427.992L496.435 427.97L496.036 426.01ZM719.398 380.51L496.036 426.01L496.435 427.97L719.797 382.47L719.398 380.51ZM719.627 380.463L719.398 380.51L719.797 382.47L720.027 382.423L719.627 380.463ZM719.057 380.763L718.946 380.97L720.708 381.916L720.819 381.71L719.057 380.763ZM795.082 239.263L719.057 380.763L720.819 381.71L796.844 240.21L795.082 239.263ZM794.609 240.144L795.49 240.618L796.437 238.856L795.556 238.382L794.609 240.144ZM720.049 381.03L795.963 239.737L794.202 238.79L718.287 380.084L720.049 381.03ZM496.345 426.968L719.368 381.537L718.968 379.577L495.945 425.008L496.345 426.968ZM259.359 370.048L495.911 426.96L496.379 425.016L259.826 368.103L259.359 370.048ZM206.89 234.179L258.659 369.433L260.526 368.718L208.758 233.464L206.89 234.179ZM207.248 235.113L208.182 234.755L207.467 232.887L206.533 233.245L207.248 235.113ZM279.524 346.13C279.944 347.062 280.689 347.797 281.657 348.366L282.669 346.641C281.963 346.226 281.556 345.772 281.347 345.308L279.524 346.13ZM279.26 343.295C279.044 344.27 279.124 345.224 279.521 346.122L281.35 345.315C281.136 344.828 281.083 344.311 281.212 343.728L279.26 343.295ZM280.63 340.595C279.945 341.436 279.472 342.336 279.26 343.295L281.212 343.728C281.345 343.129 281.652 342.507 282.18 341.859L280.63 340.595ZM292.442 326.113L280.63 340.595L282.18 341.859L293.992 327.378L292.442 326.113ZM296.704 327.633L293.723 325.883L292.711 327.608L295.691 329.358L296.704 327.633ZM285.161 343.609L296.972 329.127L295.422 327.863L283.611 342.345L285.161 343.609ZM284.836 344.236C284.865 344.073 284.952 343.864 285.161 343.609L283.611 342.345C283.239 342.801 282.97 343.313 282.868 343.879L284.836 344.236ZM284.793 344.037C284.736 344.003 284.769 344.007 284.804 344.076C284.822 344.109 284.832 344.145 284.836 344.177C284.841 344.207 284.838 344.224 284.838 344.221L282.865 343.893C282.805 344.252 282.842 344.635 283.028 344.994C283.208 345.344 283.488 345.59 283.781 345.762L284.793 344.037ZM284.943 344.059C284.918 344.071 284.903 344.075 284.897 344.076C284.891 344.077 284.889 344.077 284.889 344.077C284.888 344.077 284.881 344.077 284.867 344.072C284.853 344.068 284.828 344.058 284.793 344.037L283.781 345.762C284.419 346.137 285.14 346.19 285.824 345.854L284.943 344.059ZM285.598 343.512C285.387 343.77 285.164 343.947 284.933 344.063L285.833 345.849C286.341 345.593 286.778 345.228 287.147 344.776L285.598 343.512ZM297.409 329.03L285.598 343.512L287.147 344.776L298.959 330.294L297.409 329.03ZM301.671 330.549L298.691 328.799L297.678 330.524L300.658 332.274L301.671 330.549ZM290.128 346.525L301.94 332.043L300.39 330.779L288.578 345.261L290.128 346.525ZM287.681 348.512C288.622 348.038 289.438 347.371 290.128 346.525L288.578 345.261C288.054 345.903 287.456 346.386 286.782 346.725L287.681 348.512ZM284.708 349.23C285.754 349.234 286.752 348.991 287.69 348.507L286.773 346.73C286.115 347.069 285.434 347.233 284.717 347.23L284.708 349.23ZM281.657 348.366C282.623 348.933 283.646 349.232 284.715 349.23L284.711 347.23C284.035 347.231 283.359 347.046 282.669 346.641L281.657 348.366ZM302.602 332.078L287.736 350.304L289.286 351.568L304.152 333.342L302.602 332.078ZM310.975 336.011L303.883 331.848L302.871 333.572L309.963 337.736L310.975 336.011ZM308.999 340.258L311.244 337.506L309.694 336.242L307.449 338.994L308.999 340.258ZM303.606 338.075L307.718 340.489L308.73 338.764L304.618 336.35L303.606 338.075ZM300.984 342.63L304.887 337.844L303.337 336.58L299.434 341.366L300.984 342.63ZM303.474 342.756L300.715 341.136L299.702 342.861L302.462 344.481L303.474 342.756ZM301.498 347.003L303.743 344.25L302.193 342.986L299.948 345.739L301.498 347.003ZM297.457 345.613L300.217 347.233L301.229 345.509L298.47 343.888L297.457 345.613ZM292.266 353.318L298.738 345.383L297.189 344.119L290.716 352.054L292.266 353.318ZM288.005 351.799L290.985 353.548L291.998 351.824L289.017 350.074L288.005 351.799ZM297.86 356.894C298.279 357.824 299.018 358.558 299.979 359.122L300.992 357.397C300.297 356.989 299.893 356.539 299.683 356.072L297.86 356.894ZM297.579 354.064C297.376 355.04 297.462 355.992 297.856 356.887L299.686 356.08C299.47 355.589 299.414 355.064 299.537 354.472L297.579 354.064ZM298.953 351.352C298.267 352.192 297.795 353.092 297.582 354.051L299.535 354.484C299.667 353.886 299.974 353.263 300.502 352.616L298.953 351.352ZM307.71 340.614L298.953 351.352L300.502 352.616L309.26 341.878L307.71 340.614ZM310.139 338.622C309.212 339.094 308.403 339.765 307.71 340.614L309.26 341.878C309.794 341.224 310.39 340.739 311.047 340.404L310.139 338.622ZM313.11 337.902C312.077 337.904 311.084 338.147 310.143 338.62L311.042 340.407C311.716 340.068 312.402 339.903 313.113 339.902L313.11 337.902ZM316.181 338.774C315.215 338.207 314.189 337.906 313.116 337.902L313.107 339.902C313.796 339.905 314.479 340.094 315.169 340.499L316.181 338.774ZM318.29 341.001C317.879 340.07 317.141 339.338 316.181 338.774L315.169 340.499C315.864 340.907 316.259 341.353 316.46 341.808L318.29 341.001ZM318.564 343.837C318.782 342.857 318.694 341.897 318.287 340.994L316.463 341.816C316.686 342.309 316.74 342.826 316.612 343.404L318.564 343.837ZM317.208 346.544C317.896 345.701 318.365 344.794 318.567 343.824L316.609 343.416C316.484 344.015 316.183 344.636 315.658 345.28L317.208 346.544ZM308.45 357.282L317.208 346.544L315.658 345.28L306.9 356.018L308.45 357.282ZM306.003 359.268C306.944 358.795 307.76 358.128 308.45 357.282L306.9 356.018C306.377 356.659 305.778 357.142 305.104 357.481L306.003 359.268ZM303.031 359.986C304.076 359.991 305.074 359.747 306.012 359.264L305.096 357.486C304.438 357.825 303.756 357.989 303.039 357.986L303.031 359.986ZM299.979 359.122C300.945 359.689 301.969 359.988 303.037 359.986L303.033 357.986C302.358 357.988 301.682 357.802 300.992 357.397L299.979 359.122ZM303.265 354.807C303.238 354.821 303.22 354.826 303.212 354.828C303.205 354.83 303.202 354.83 303.202 354.83C303.201 354.83 303.196 354.83 303.184 354.826C303.172 354.822 303.149 354.813 303.115 354.793L302.103 356.518C302.753 356.9 303.482 356.938 304.166 356.593L303.265 354.807ZM303.92 354.268C303.727 354.504 303.507 354.682 303.256 354.812L304.175 356.589C304.677 356.329 305.109 355.974 305.47 355.532L303.92 354.268ZM312.677 343.531L303.92 354.268L305.47 355.532L314.227 344.795L312.677 343.531ZM312.982 342.929C312.951 343.099 312.866 343.299 312.677 343.531L314.227 344.795C314.591 344.348 314.849 343.844 314.95 343.286L312.982 342.929ZM313.045 343.103C313.093 343.131 313.052 343.12 313.015 343.043C312.998 343.006 312.989 342.97 312.986 342.942C312.983 342.915 312.987 342.905 312.985 342.916L314.948 343.299C315.017 342.942 314.997 342.552 314.819 342.179C314.644 341.813 314.359 341.555 314.057 341.378L313.045 343.103ZM312.871 343.123C312.954 343.084 312.994 343.084 312.998 343.084C313.002 343.084 313.005 343.085 313.009 343.086C313.014 343.087 313.025 343.091 313.045 343.103L314.057 341.378C313.401 340.993 312.683 341.004 312.026 341.31L312.871 343.123ZM312.24 343.628C312.428 343.399 312.639 343.233 312.879 343.119L312.017 341.314C311.5 341.561 311.056 341.916 310.691 342.364L312.24 343.628ZM303.483 354.366L312.24 343.628L310.691 342.364L301.933 353.101L303.483 354.366ZM303.165 354.993C303.202 354.805 303.294 354.596 303.483 354.366L301.933 353.101C301.568 353.548 301.311 354.052 301.202 354.609L303.165 354.993ZM303.115 354.793C303.062 354.762 303.099 354.77 303.136 354.843C303.153 354.878 303.163 354.914 303.167 354.944C303.17 354.973 303.167 354.986 303.168 354.98L301.2 354.623C301.135 354.981 301.163 355.368 301.345 355.734C301.523 356.092 301.806 356.344 302.103 356.518L303.115 354.793ZM657.23 373.947L640.829 357.088L639.395 358.483L655.796 375.341L657.23 373.947ZM658.771 371.842L655.94 373.825L657.087 375.463L659.918 373.481L658.771 371.842ZM651.487 366.019L658.627 373.359L660.061 371.964L652.92 364.625L651.487 366.019ZM653.832 362.961L651.63 364.503L652.777 366.141L654.979 364.599L653.832 362.961ZM662.263 370.422L655.122 363.083L653.689 364.477L660.829 371.817L662.263 370.422ZM663.803 368.318L660.972 370.3L662.12 371.939L664.95 369.956L663.803 368.318ZM647.259 352.976L663.66 369.835L665.094 368.44L648.693 351.582L647.259 352.976ZM645.719 355.081L648.549 353.098L647.402 351.46L644.571 353.442L645.719 355.081ZM652.645 360.537L645.862 353.564L644.428 354.959L651.212 361.931L652.645 360.537ZM650.3 363.595L652.502 362.053L651.355 360.415L649.153 361.957L650.3 363.595ZM642.226 356.501L649.01 363.473L650.443 362.079L643.66 355.106L642.226 356.501ZM640.686 358.605L643.517 356.622L642.37 354.984L639.539 356.967L640.686 358.605ZM669.85 364.392C669.185 364.858 668.512 365.105 667.824 365.165L667.997 367.158C669.07 367.064 670.073 366.678 670.997 366.03L669.85 364.392ZM671.029 362.989C670.867 363.454 670.511 363.929 669.85 364.392L670.997 366.03C671.909 365.392 672.586 364.603 672.919 363.643L671.029 362.989ZM671.045 361.4C671.221 361.961 671.211 362.476 671.031 362.981L672.916 363.651C673.247 362.719 673.254 361.757 672.953 360.8L671.045 361.4ZM669.934 359.618C670.514 360.215 670.866 360.805 671.041 361.388L672.957 360.812C672.672 359.866 672.126 359.004 671.367 358.224L669.934 359.618ZM656.902 346.224L669.934 359.618L671.367 358.224L658.336 344.829L656.902 346.224ZM655.362 348.328L658.193 346.345L657.045 344.707L654.214 346.69L655.362 348.328ZM668.536 360.206L655.505 346.811L654.071 348.206L667.103 361.601L668.536 360.206ZM669.415 361.633C669.253 361.095 668.94 360.621 668.536 360.206L667.103 361.601C667.339 361.843 667.451 362.048 667.5 362.211L669.415 361.633ZM668.654 363.622C668.932 363.428 669.2 363.159 669.357 362.793C669.52 362.41 669.524 362.012 669.419 361.646L667.496 362.198C667.495 362.192 667.489 362.167 667.49 362.127C667.492 362.085 667.502 362.043 667.518 362.006C667.549 361.933 667.579 361.933 667.507 361.984L668.654 363.622ZM666.661 363.88C667.349 364.131 668.051 364.045 668.654 363.622L667.507 361.984C667.458 362.018 667.436 362.02 667.436 362.02C667.434 362.02 667.409 362.024 667.345 362.001L666.661 363.88ZM665.215 362.923C665.629 363.347 666.107 363.672 666.651 363.877L667.355 362.005C667.111 361.913 666.876 361.761 666.649 361.528L665.215 362.923ZM652.184 349.528L665.215 362.922L666.649 361.528L653.617 348.133L652.184 349.528ZM650.643 351.632L653.474 349.649L652.327 348.011L649.496 349.994L650.643 351.632ZM663.818 363.51L650.787 350.115L649.353 351.51L662.385 364.905L663.818 363.51ZM665.735 364.828C665.037 364.541 664.399 364.107 663.818 363.51L662.385 364.905C663.143 365.684 664.007 366.28 664.974 366.678L665.735 364.828ZM667.83 365.165C667.12 365.222 666.426 365.113 665.735 364.828L664.974 366.678C665.948 367.079 666.958 367.242 667.991 367.158L667.83 365.165ZM676.838 360.216L660.437 343.358L659.003 344.752L675.404 361.61L676.838 360.216ZM678.143 358.277L675.548 360.094L676.695 361.732L679.29 359.915L678.143 358.277ZM668.694 350.229L677.999 359.793L679.433 358.399L670.128 348.834L668.694 350.229ZM668.995 348.602L668.838 348.712L669.985 350.351L670.142 350.241L668.995 348.602ZM671.089 349.185L670.094 348.571L669.043 350.272L670.037 350.887L671.089 349.185ZM682.502 355.941L671.072 349.175L670.054 350.897L681.483 357.662L682.502 355.941ZM683.804 354.312L681.419 355.982L682.566 357.621L684.952 355.95L683.804 354.312ZM667.26 338.97L683.661 355.828L685.095 354.434L668.694 337.576L667.26 338.97ZM665.956 340.909L668.551 339.092L667.403 337.454L664.808 339.271L665.956 340.909ZM675.404 348.957L666.099 339.393L664.665 340.787L673.97 350.352L675.404 348.957ZM675.103 350.584L675.261 350.474L674.113 348.836L673.956 348.946L675.103 350.584ZM673.009 350.001L674.004 350.615L675.055 348.914L674.061 348.299L673.009 350.001ZM661.839 343.05L673.007 349.999L674.064 348.301L662.896 341.352L661.839 343.05ZM660.294 344.874L662.941 343.02L661.794 341.382L659.147 343.236L660.294 344.874ZM689.067 351.652L675.143 337.34L673.709 338.735L687.633 353.047L689.067 351.652ZM690.607 349.548L687.776 351.531L688.924 353.169L691.754 351.186L690.607 349.548ZM676.54 336.752L690.464 351.065L691.898 349.67L677.974 335.358L676.54 336.752ZM679.357 333.364L676.683 335.236L677.83 336.874L680.504 335.002L679.357 333.364ZM676.737 332.334L679.214 334.88L680.647 333.486L678.17 330.94L676.737 332.334ZM669.849 338.183L678.027 332.456L676.88 330.818L668.702 336.545L669.849 338.183ZM672.469 339.212L669.992 336.666L668.559 338.061L671.035 340.607L672.469 339.212ZM673.852 337.218L671.179 339.091L672.326 340.729L674.999 338.857L673.852 337.218ZM695.883 346.879L679.482 330.021L678.048 331.416L694.449 348.274L695.883 346.879ZM701.067 342.224L694.592 346.758L695.74 348.396L702.214 343.862L701.067 342.224ZM698.447 341.194L700.924 343.74L702.357 342.346L699.88 339.8L698.447 341.194ZM696.094 343.868L699.737 341.316L698.59 339.678L694.946 342.229L696.094 343.868ZM690.184 338.998L694.803 343.746L696.237 342.351L691.618 337.603L690.184 338.998ZM692.949 335.646L690.327 337.482L691.475 339.12L694.096 337.284L692.949 335.646ZM690.395 334.685L692.805 337.162L694.239 335.768L691.829 333.291L690.395 334.685ZM689.065 336.643L691.686 334.807L690.539 333.169L687.917 335.004L689.065 336.643ZM683.356 331.979L687.774 336.521L689.208 335.126L684.79 330.585L683.356 331.979ZM687.143 327.912L683.499 330.463L684.646 332.101L688.29 329.55L687.143 327.912ZM684.523 326.882L686.999 329.428L688.433 328.033L685.956 325.487L684.523 326.882ZM679.339 331.538L685.813 327.004L684.666 325.366L678.191 329.899L679.339 331.538ZM704.458 340.874L688.057 324.016L686.623 325.411L703.024 342.269L704.458 340.874ZM705.999 338.77L703.168 340.753L704.315 342.391L707.146 340.409L705.999 338.77ZM698.938 333.176L705.855 340.287L707.289 338.892L700.371 331.782L698.938 333.176ZM699.579 331.311L699.081 331.66L700.228 333.298L700.726 332.95L699.579 331.311ZM709.244 337.303L700.728 331.312L699.577 332.948L708.094 338.939L709.244 337.303ZM710.926 335.319L708.095 337.302L709.243 338.94L712.074 336.958L710.926 335.319ZM701.209 330.296L710.935 336.963L712.065 335.314L702.34 328.647L701.209 330.296ZM700.723 327.289C700.976 328.111 700.97 328.715 700.824 329.16L702.725 329.783C703.038 328.827 702.967 327.78 702.633 326.699L700.723 327.289ZM699.139 324.822C699.983 325.69 700.487 326.512 700.721 327.284L702.635 326.704C702.284 325.546 701.573 324.455 700.573 323.427L699.139 324.822ZM694.967 322.332C696.287 322.543 697.679 323.321 699.139 324.822L700.573 323.427C698.923 321.732 697.162 320.657 695.282 320.357L694.967 322.332ZM690.745 323.55C692.287 322.471 693.678 322.122 694.963 322.332L695.286 320.358C693.356 320.043 691.446 320.618 689.598 321.912L690.745 323.55ZM687.914 325.533L690.745 323.55L689.598 321.912L686.767 323.895L687.914 325.533ZM697.997 331.005C698.621 330.568 699.145 330.005 699.343 329.278L697.413 328.753C697.386 328.852 697.274 329.069 696.85 329.366L697.997 331.005ZM691.842 325.883L696.707 330.883L698.14 329.488L693.276 324.488L691.842 325.883ZM695.134 323.738C694.035 323.391 692.956 323.686 691.985 324.366L693.132 326.005C693.752 325.571 694.189 325.537 694.532 325.645L695.134 323.738ZM697.805 325.52C696.958 324.65 696.065 324.014 695.117 323.733L694.549 325.651C695.046 325.798 695.656 326.179 696.371 326.914L697.805 325.52ZM699.08 327.238C698.787 326.652 698.35 326.08 697.805 325.52L696.371 326.914C696.823 327.378 697.117 327.785 697.291 328.133L699.08 327.238ZM699.348 329.258C699.522 328.561 699.397 327.872 699.08 327.238L697.291 328.133C697.441 328.431 697.444 328.629 697.408 328.773L699.348 329.258ZM716.123 331.989C715.43 332.474 714.805 332.745 714.246 332.852L714.62 334.816C715.523 334.645 716.407 334.232 717.27 333.628L716.123 331.989ZM717.273 330.789C717.089 331.154 716.734 331.561 716.123 331.989L717.27 333.628C718.056 333.077 718.681 332.438 719.059 331.69L717.273 330.789ZM717.519 329.586C717.558 329.989 717.483 330.381 717.277 330.781L719.055 331.697C719.428 330.972 719.587 330.198 719.51 329.396L717.519 329.586ZM717.047 328.147C717.337 328.657 717.483 329.129 717.518 329.571L719.512 329.411C719.45 328.636 719.197 327.883 718.787 327.16L717.047 328.147ZM715.783 326.509C716.322 327.063 716.74 327.611 717.049 328.151L718.785 327.157C718.38 326.449 717.853 325.769 717.217 325.115L715.783 326.509ZM712.874 324.676C713.999 325.059 714.964 325.668 715.783 326.509L717.217 325.115C716.176 324.045 714.939 323.266 713.518 322.783L712.874 324.676ZM708.516 323.472C710.199 323.849 711.648 324.251 712.868 324.674L713.524 322.785C712.215 322.331 710.69 321.91 708.954 321.52L708.516 323.472ZM704.805 322.469C705.817 322.803 707.055 323.136 708.511 323.471L708.958 321.521C707.539 321.195 706.366 320.878 705.431 320.57L704.805 322.469ZM702.004 320.772C702.756 321.545 703.701 322.105 704.805 322.469L705.431 320.57C704.589 320.292 703.935 319.888 703.438 319.377L702.004 320.772ZM700.865 319.094C701.057 319.677 701.487 320.24 702.004 320.772L703.438 319.377C702.988 318.915 702.813 318.616 702.765 318.468L700.865 319.094ZM701.6 317.017C701.305 317.223 701.024 317.512 700.874 317.91C700.717 318.322 700.743 318.738 700.869 319.105L702.761 318.456C702.758 318.449 702.765 318.465 702.765 318.5C702.766 318.536 702.759 318.578 702.744 318.619C702.712 318.702 702.675 318.705 702.747 318.655L701.6 317.017ZM703.103 316.66C702.567 316.583 702.047 316.703 701.6 317.017L702.747 318.655C702.758 318.647 702.766 318.643 702.77 318.641C702.774 318.639 702.776 318.639 702.777 318.639C702.777 318.639 702.789 318.635 702.821 318.64L703.103 316.66ZM704.368 317.123C703.971 316.889 703.548 316.723 703.103 316.66L702.821 318.64C702.956 318.659 703.132 318.716 703.354 318.846L704.368 317.123ZM705.449 317.915C705.099 317.607 704.739 317.341 704.368 317.123L703.354 318.846C703.601 318.992 703.859 319.18 704.127 319.416L705.449 317.915ZM706.383 318.78C706.083 318.472 705.764 318.178 705.428 317.897L704.148 319.434C704.432 319.671 704.699 319.918 704.949 320.175L706.383 318.78ZM707.573 316.541L705.018 318.716L706.314 320.239L708.869 318.064L707.573 316.541ZM705.691 316.486C706.297 316.878 706.902 317.38 707.504 318L708.938 316.605C708.246 315.894 707.528 315.293 706.78 314.808L705.691 316.486ZM703.925 315.671C704.503 315.817 705.087 316.081 705.679 316.477L706.792 314.816C706.033 314.307 705.241 313.941 704.416 313.732L703.925 315.671ZM702.252 315.619C702.821 315.507 703.371 315.525 703.915 315.668L704.427 313.735C703.585 313.512 702.727 313.487 701.866 313.657L702.252 315.619ZM700.486 316.421C701.121 315.976 701.707 315.723 702.246 315.62L701.872 313.656C700.998 313.822 700.153 314.212 699.338 314.783L700.486 316.421ZM699.535 317.443C699.706 317.104 700.004 316.758 700.486 316.421L699.338 314.783C698.649 315.265 698.1 315.847 697.75 316.541L699.535 317.443ZM699.289 318.601C699.271 318.185 699.353 317.804 699.535 317.443L697.75 316.541C697.41 317.214 697.257 317.936 697.291 318.691L699.289 318.601ZM699.678 319.949C699.428 319.456 699.309 319.007 699.289 318.598L697.292 318.694C697.327 319.428 697.538 320.15 697.893 320.852L699.678 319.949ZM700.771 321.438C700.279 320.931 699.921 320.436 699.68 319.953L697.891 320.848C698.24 321.546 698.729 322.207 699.337 322.832L700.771 321.438ZM702.931 323.012C702.108 322.599 701.39 322.074 700.771 321.438L699.337 322.832C700.116 323.633 701.017 324.289 702.033 324.799L702.931 323.012ZM705.895 324.114C704.776 323.802 703.787 323.432 702.922 323.008L702.041 324.803C703.033 325.29 704.14 325.701 705.359 326.04L705.895 324.114ZM709.789 325.056C708.347 324.741 707.047 324.426 705.889 324.112L705.365 326.042C706.562 326.367 707.894 326.689 709.362 327.01L709.789 325.056ZM712.422 325.859C711.575 325.52 710.696 325.252 709.787 325.056L709.364 327.011C710.167 327.184 710.938 327.419 711.679 327.716L712.422 325.859ZM714.661 327.29C714.072 326.684 713.312 326.215 712.422 325.859L711.679 327.716C712.377 327.995 712.879 328.326 713.228 328.684L714.661 327.29ZM715.833 329.085C715.611 328.437 715.197 327.841 714.661 327.29L713.228 328.684C713.629 329.096 713.843 329.448 713.941 329.733L715.833 329.085ZM715.061 331.357C715.393 331.124 715.69 330.803 715.844 330.37C716 329.93 715.967 329.488 715.836 329.094L713.938 329.725C713.95 329.759 713.949 329.77 713.948 329.761C713.948 329.756 713.948 329.747 713.95 329.736C713.952 329.725 713.955 329.713 713.959 329.701C713.963 329.689 713.968 329.68 713.972 329.673C713.976 329.667 713.978 329.664 713.977 329.666C713.974 329.669 713.957 329.688 713.913 329.719L715.061 331.357ZM713.487 331.728C714.045 331.805 714.589 331.687 715.061 331.357L713.913 329.719C713.878 329.743 713.846 329.759 713.76 329.747L713.487 331.728ZM712.121 331.212C712.549 331.466 712.998 331.65 713.465 331.725L713.782 329.75C713.622 329.724 713.41 329.651 713.142 329.492L712.121 331.212ZM710.916 330.312C711.309 330.65 711.702 330.946 712.095 331.196L713.168 329.508C712.869 329.318 712.553 329.082 712.221 328.796L710.916 330.312ZM709.775 329.212C710.147 329.594 710.521 329.956 710.899 330.297L712.239 328.812C711.895 328.501 711.551 328.17 711.209 327.818L709.775 329.212ZM708.585 331.452L711.14 329.277L709.844 327.754L707.288 329.929L708.585 331.452ZM710.696 331.795C710.039 331.316 709.358 330.717 708.653 329.993L707.22 331.387C707.988 332.177 708.753 332.853 709.516 333.411L710.696 331.795ZM712.549 332.746C711.954 332.562 711.333 332.25 710.686 331.789L709.526 333.417C710.316 333.981 711.127 334.4 711.96 334.657L712.549 332.746ZM714.257 332.85C713.675 332.954 713.11 332.919 712.549 332.746L711.96 334.657C712.826 334.924 713.714 334.978 714.608 334.819L714.257 332.85Z" fill="black" fill-opacity="0.2" mask="url(#path-1-inside-1_0_1)"/>
<path d="M796.932 210.272C803.279 210.2 809.399 212.977 813.944 217.993C818.49 223.01 821.09 229.853 821.171 237.019C821.253 244.185 818.81 251.086 814.379 256.204C809.949 261.323 803.894 264.239 797.547 264.311L797.239 237.291L796.932 210.272Z" fill="#7106B3" fill-opacity="0.49"/>
<path d="M473.768 46.6559C473.565 40.3116 476.214 34.1357 481.135 29.487C486.056 24.8382 492.844 22.0974 500.007 21.8673C507.17 21.6373 514.12 23.937 519.329 28.2604C524.538 32.5839 527.579 38.5769 527.782 44.9212L500.775 45.7886L473.768 46.6559Z" fill="#7106B3" fill-opacity="0.49"/>
<path d="M206.092 264.112C199.744 264.131 193.648 261.302 189.145 256.247C184.642 251.193 182.1 244.328 182.079 237.161C182.058 229.995 184.56 223.115 189.033 218.034C193.507 212.953 199.586 210.089 205.933 210.07L206.013 237.091L206.092 264.112Z" fill="#7106B3" fill-opacity="0.49"/>
<path d="M526.669 425.925C526.841 432.27 524.159 438.432 519.215 443.056C514.271 447.68 507.469 450.386 500.305 450.58C493.141 450.774 486.203 448.439 481.016 444.089C475.829 439.739 472.818 433.731 472.647 427.385L499.658 426.655L526.669 425.925Z" fill="#7106B3" fill-opacity="0.49"/>
<path fill-rule="evenodd" clip-rule="evenodd" d="M539.858 387.184L500.548 375L461.472 387.111L453.024 387.104L457.227 388.427L453 389.737H461.387L500.548 402.069L539.98 389.737H548.096L544.02 388.474L548.12 387.191L539.858 387.184ZM541.779 387.993H459.341V386.993H541.779V387.993Z" fill="black"/>
<path fill-rule="evenodd" clip-rule="evenodd" d="M776.332 232.14L737.022 219.956L697.946 232.068L689.497 232.06L693.7 233.383L689.474 234.694H697.861L737.022 247.025L776.454 234.694H784.57L780.494 233.43L784.594 232.148L776.332 232.14ZM778.252 232.949H695.815V231.949H778.252V232.949Z" fill="black"/>
<path fill-rule="evenodd" clip-rule="evenodd" d="M303.267 232.14L263.957 219.956L224.881 232.068L216.433 232.06L220.636 233.383L216.409 234.694H224.796L263.957 247.025L303.389 234.694H311.506L307.429 233.43L311.529 232.148L303.267 232.14ZM305.188 232.949H222.75V231.949H305.188V232.949Z" fill="black"/>
<path fill-rule="evenodd" clip-rule="evenodd" d="M539.165 85.9687L499.855 73.7849L460.779 85.8962L452.331 85.8884L456.534 87.212L452.307 88.5221H460.694L499.855 100.854L539.287 88.5221H547.404L543.327 87.2586L547.427 85.9763L539.165 85.9687ZM541.086 86.7779H458.649V85.7779H541.086V86.7779Z" fill="black"/>
<defs>
<linearGradient id="paint0_linear_0_1" x1="500.482" y1="46" x2="500.482" y2="427.012" gradientUnits="userSpaceOnUse">
<stop stop-color="#42E827"/>
<stop offset="0.9999" stop-color="#4883DD" stop-opacity="0.99"/>
<stop offset="1" stop-color="#42E827" stop-opacity="0"/>
</linearGradient>
</defs>
</svg>
